G04 #@! TF.GenerationSoftware,KiCad,Pcbnew,5.1.5-52549c5~84~ubuntu18.04.1*
G04 #@! TF.CreationDate,2019-11-25T01:58:10+02:00*
G04 #@! TF.ProjectId,tinydimmer,74696e79-6469-46d6-9d65-722e6b696361,rev?*
G04 #@! TF.SameCoordinates,PX1d369d0PY5483e38*
G04 #@! TF.FileFunction,Legend,Top*
G04 #@! TF.FilePolarity,Positive*
%FSLAX46Y46*%
G04 Gerber Fmt 4.6, Leading zero omitted, Abs format (unit mm)*
G04 Created by KiCad (PCBNEW 5.1.5-52549c5~84~ubuntu18.04.1) date 2019-11-25 01:58:10*
%MOMM*%
%LPD*%
G04 APERTURE LIST*
%ADD10C,0.150000*%
G04 #@! TA.AperFunction,Profile*
%ADD11C,0.050000*%
G04 #@! TD*
%ADD12C,0.120000*%
G04 APERTURE END LIST*
D10*
X13619219Y30121553D02*
X13571600Y30169172D01*
X13523980Y30264410D01*
X13523980Y30502505D01*
X13571600Y30597743D01*
X13619219Y30645362D01*
X13714457Y30692981D01*
X13809695Y30692981D01*
X13952552Y30645362D01*
X14523980Y30073934D01*
X14523980Y30692981D01*
X14238266Y31073934D02*
X14238266Y31550124D01*
X14523980Y30978696D02*
X13523980Y31312029D01*
X14523980Y31645362D01*
X14523980Y32740600D02*
X13857314Y32740600D01*
X13952552Y32740600D02*
X13904933Y32788220D01*
X13857314Y32883458D01*
X13857314Y33026315D01*
X13904933Y33121553D01*
X14000171Y33169172D01*
X14523980Y33169172D01*
X14000171Y33169172D02*
X13904933Y33216791D01*
X13857314Y33312029D01*
X13857314Y33454886D01*
X13904933Y33550124D01*
X14000171Y33597743D01*
X14523980Y33597743D01*
X14523980Y34502505D02*
X14000171Y34502505D01*
X13904933Y34454886D01*
X13857314Y34359648D01*
X13857314Y34169172D01*
X13904933Y34073934D01*
X14476361Y34502505D02*
X14523980Y34407267D01*
X14523980Y34169172D01*
X14476361Y34073934D01*
X14381123Y34026315D01*
X14285885Y34026315D01*
X14190647Y34073934D01*
X14143028Y34169172D01*
X14143028Y34407267D01*
X14095409Y34502505D01*
X14523980Y34883458D02*
X13857314Y35407267D01*
X13857314Y34883458D02*
X14523980Y35407267D01*
X91485980Y42972220D02*
X91009790Y42638886D01*
X91485980Y42400791D02*
X90485980Y42400791D01*
X90485980Y42781743D01*
X90533600Y42876981D01*
X90581219Y42924600D01*
X90676457Y42972220D01*
X90819314Y42972220D01*
X90914552Y42924600D01*
X90962171Y42876981D01*
X91009790Y42781743D01*
X91009790Y42400791D01*
X90962171Y43400791D02*
X90962171Y43734124D01*
X91485980Y43876981D02*
X91485980Y43400791D01*
X90485980Y43400791D01*
X90485980Y43876981D01*
X91438361Y44257934D02*
X91485980Y44400791D01*
X91485980Y44638886D01*
X91438361Y44734124D01*
X91390742Y44781743D01*
X91295504Y44829362D01*
X91200266Y44829362D01*
X91105028Y44781743D01*
X91057409Y44734124D01*
X91009790Y44638886D01*
X90962171Y44448410D01*
X90914552Y44353172D01*
X90866933Y44305553D01*
X90771695Y44257934D01*
X90676457Y44257934D01*
X90581219Y44305553D01*
X90533600Y44353172D01*
X90485980Y44448410D01*
X90485980Y44686505D01*
X90533600Y44829362D01*
X90962171Y45257934D02*
X90962171Y45591267D01*
X91485980Y45734124D02*
X91485980Y45257934D01*
X90485980Y45257934D01*
X90485980Y45734124D01*
X90485980Y46019839D02*
X90485980Y46591267D01*
X91485980Y46305553D02*
X90485980Y46305553D01*
D11*
X125222000Y50241200D02*
X0Y50241200D01*
X125222000Y0D02*
X125222000Y50241200D01*
X0Y0D02*
X125222000Y0D01*
X0Y50241200D02*
X0Y0D01*
D10*
X665219Y25279315D02*
X1665219Y25279315D01*
X665219Y24707886D01*
X1665219Y24707886D01*
X665219Y29891077D02*
X665219Y30367267D01*
X1665219Y30367267D01*
X124523980Y10888886D02*
X123523980Y10888886D01*
X123523980Y11269839D01*
X123571600Y11365077D01*
X123619219Y11412696D01*
X123714457Y11460315D01*
X123857314Y11460315D01*
X123952552Y11412696D01*
X124000171Y11365077D01*
X124047790Y11269839D01*
X124047790Y10888886D01*
X123523980Y12079362D02*
X123523980Y12269839D01*
X123571600Y12365077D01*
X123666838Y12460315D01*
X123857314Y12507934D01*
X124190647Y12507934D01*
X124381123Y12460315D01*
X124476361Y12365077D01*
X124523980Y12269839D01*
X124523980Y12079362D01*
X124476361Y11984124D01*
X124381123Y11888886D01*
X124190647Y11841267D01*
X123857314Y11841267D01*
X123666838Y11888886D01*
X123571600Y11984124D01*
X123523980Y12079362D01*
X123523980Y12793648D02*
X123523980Y13365077D01*
X124523980Y13079362D02*
X123523980Y13079362D01*
X124143028Y13698410D02*
X124143028Y14460315D01*
X124523980Y14079362D02*
X123762076Y14079362D01*
X124523980Y30732648D02*
X123523980Y30732648D01*
X123523980Y31113600D01*
X123571600Y31208839D01*
X123619219Y31256458D01*
X123714457Y31304077D01*
X123857314Y31304077D01*
X123952552Y31256458D01*
X124000171Y31208839D01*
X124047790Y31113600D01*
X124047790Y30732648D01*
X124476361Y31685029D02*
X124523980Y31827886D01*
X124523980Y32065981D01*
X124476361Y32161220D01*
X124428742Y32208839D01*
X124333504Y32256458D01*
X124238266Y32256458D01*
X124143028Y32208839D01*
X124095409Y32161220D01*
X124047790Y32065981D01*
X124000171Y31875505D01*
X123952552Y31780267D01*
X123904933Y31732648D01*
X123809695Y31685029D01*
X123714457Y31685029D01*
X123619219Y31732648D01*
X123571600Y31780267D01*
X123523980Y31875505D01*
X123523980Y32113600D01*
X123571600Y32256458D01*
X123523980Y32685029D02*
X124333504Y32685029D01*
X124428742Y32732648D01*
X124476361Y32780267D01*
X124523980Y32875505D01*
X124523980Y33065981D01*
X124476361Y33161220D01*
X124428742Y33208839D01*
X124333504Y33256458D01*
X123523980Y33256458D01*
X124143028Y33732648D02*
X124143028Y34494553D01*
X124523980Y34113600D02*
X123762076Y34113600D01*
X124523980Y25779648D02*
X123523980Y25779648D01*
X123523980Y26160600D01*
X123571600Y26255839D01*
X123619219Y26303458D01*
X123714457Y26351077D01*
X123857314Y26351077D01*
X123952552Y26303458D01*
X124000171Y26255839D01*
X124047790Y26160600D01*
X124047790Y25779648D01*
X124476361Y26732029D02*
X124523980Y26874886D01*
X124523980Y27112981D01*
X124476361Y27208220D01*
X124428742Y27255839D01*
X124333504Y27303458D01*
X124238266Y27303458D01*
X124143028Y27255839D01*
X124095409Y27208220D01*
X124047790Y27112981D01*
X124000171Y26922505D01*
X123952552Y26827267D01*
X123904933Y26779648D01*
X123809695Y26732029D01*
X123714457Y26732029D01*
X123619219Y26779648D01*
X123571600Y26827267D01*
X123523980Y26922505D01*
X123523980Y27160600D01*
X123571600Y27303458D01*
X123523980Y27732029D02*
X124333504Y27732029D01*
X124428742Y27779648D01*
X124476361Y27827267D01*
X124523980Y27922505D01*
X124523980Y28112981D01*
X124476361Y28208220D01*
X124428742Y28255839D01*
X124333504Y28303458D01*
X123523980Y28303458D01*
X124143028Y28779648D02*
X124143028Y29541553D01*
X124523980Y36304696D02*
X124523980Y35828505D01*
X123523980Y35828505D01*
X124000171Y36638029D02*
X124000171Y36971362D01*
X124523980Y37114220D02*
X124523980Y36638029D01*
X123523980Y36638029D01*
X123523980Y37114220D01*
X124523980Y37542791D02*
X123523980Y37542791D01*
X123523980Y37780886D01*
X123571600Y37923743D01*
X123666838Y38018981D01*
X123762076Y38066600D01*
X123952552Y38114220D01*
X124095409Y38114220D01*
X124285885Y38066600D01*
X124381123Y38018981D01*
X124476361Y37923743D01*
X124523980Y37780886D01*
X124523980Y37542791D01*
X124143028Y38542791D02*
X124143028Y39304696D01*
X124523980Y38923743D02*
X123762076Y38923743D01*
X124523980Y16365696D02*
X124523980Y15889505D01*
X123523980Y15889505D01*
X124000171Y16699029D02*
X124000171Y17032362D01*
X124523980Y17175220D02*
X124523980Y16699029D01*
X123523980Y16699029D01*
X123523980Y17175220D01*
X124523980Y17603791D02*
X123523980Y17603791D01*
X123523980Y17841886D01*
X123571600Y17984743D01*
X123666838Y18079981D01*
X123762076Y18127600D01*
X123952552Y18175220D01*
X124095409Y18175220D01*
X124285885Y18127600D01*
X124381123Y18079981D01*
X124476361Y17984743D01*
X124523980Y17841886D01*
X124523980Y17603791D01*
X124143028Y18603791D02*
X124143028Y19365696D01*
X124523980Y20921886D02*
X123523980Y20921886D01*
X123523980Y21302839D01*
X123571600Y21398077D01*
X123619219Y21445696D01*
X123714457Y21493315D01*
X123857314Y21493315D01*
X123952552Y21445696D01*
X124000171Y21398077D01*
X124047790Y21302839D01*
X124047790Y20921886D01*
X123523980Y22112362D02*
X123523980Y22302839D01*
X123571600Y22398077D01*
X123666838Y22493315D01*
X123857314Y22540934D01*
X124190647Y22540934D01*
X124381123Y22493315D01*
X124476361Y22398077D01*
X124523980Y22302839D01*
X124523980Y22112362D01*
X124476361Y22017124D01*
X124381123Y21921886D01*
X124190647Y21874267D01*
X123857314Y21874267D01*
X123666838Y21921886D01*
X123571600Y22017124D01*
X123523980Y22112362D01*
X123523980Y22826648D02*
X123523980Y23398077D01*
X124523980Y23112362D02*
X123523980Y23112362D01*
X124143028Y23731410D02*
X124143028Y24493315D01*
D12*
G04 #@! TO.C,D5*
X99927600Y47576600D02*
X99927600Y45336600D01*
X100167600Y47576600D02*
X100167600Y45336600D01*
X100047600Y47576600D02*
X100047600Y45336600D01*
X104217600Y46456600D02*
X103567600Y46456600D01*
X98677600Y46456600D02*
X99327600Y46456600D01*
X103567600Y47576600D02*
X99327600Y47576600D01*
X103567600Y45336600D02*
X103567600Y47576600D01*
X99327600Y45336600D02*
X103567600Y45336600D01*
X99327600Y47576600D02*
X99327600Y45336600D01*
G04 #@! TO.C,C2*
X61982600Y16825600D02*
X61982600Y16380600D01*
X61982600Y18620600D02*
X61982600Y18175600D01*
X55742600Y16825600D02*
X55742600Y16380600D01*
X55742600Y18620600D02*
X55742600Y18175600D01*
X55742600Y16380600D02*
X61982600Y16380600D01*
X55742600Y18620600D02*
X61982600Y18620600D01*
G04 #@! TO.C,C4*
X78047600Y13730600D02*
X78047600Y14175600D01*
X78047600Y11935600D02*
X78047600Y12380600D01*
X84287600Y13730600D02*
X84287600Y14175600D01*
X84287600Y11935600D02*
X84287600Y12380600D01*
X84287600Y14175600D02*
X78047600Y14175600D01*
X84287600Y11935600D02*
X78047600Y11935600D01*
G04 #@! TO.C,C5*
X82746600Y31002600D02*
X82746600Y31447600D01*
X82746600Y29207600D02*
X82746600Y29652600D01*
X88986600Y31002600D02*
X88986600Y31447600D01*
X88986600Y29207600D02*
X88986600Y29652600D01*
X88986600Y31447600D02*
X82746600Y31447600D01*
X88986600Y29207600D02*
X82746600Y29207600D01*
G04 #@! TO.C,J2*
X4432600Y31535600D02*
X2432600Y32035600D01*
X4432600Y28785600D02*
X4432600Y31535600D01*
X4432600Y28785600D02*
X2432600Y28285600D01*
X4432600Y26535600D02*
X2432600Y27035600D01*
X4432600Y23785600D02*
X2432600Y23285600D01*
X4432600Y23785600D02*
X4432600Y26535600D01*
X2432600Y32810600D02*
X2432600Y22510600D01*
X11232600Y32810600D02*
X2432600Y32810600D01*
X11232600Y22510600D02*
X11232600Y32810600D01*
X2432600Y22510600D02*
X11232600Y22510600D01*
G04 #@! TO.C,J1*
X120627600Y16245600D02*
X122627600Y15745600D01*
X120627600Y13995600D02*
X120627600Y11245600D01*
X120627600Y18995600D02*
X122627600Y19495600D01*
X120627600Y23995600D02*
X122627600Y24495600D01*
X120627600Y13995600D02*
X122627600Y14495600D01*
X120627600Y23995600D02*
X120627600Y21245600D01*
X120627600Y21245600D02*
X122627600Y20745600D01*
X120627600Y11245600D02*
X122627600Y10745600D01*
X120627600Y18995600D02*
X120627600Y16245600D01*
X120627600Y28995600D02*
X122627600Y29495600D01*
X120627600Y28995600D02*
X120627600Y26245600D01*
X120627600Y26245600D02*
X122627600Y25745600D01*
X120627600Y31245600D02*
X122627600Y30745600D01*
X120627600Y33995600D02*
X120627600Y31245600D01*
X120627600Y33995600D02*
X122627600Y34495600D01*
X120627600Y36245600D02*
X122627600Y35745600D01*
X120627600Y38995600D02*
X122627600Y39495600D01*
X120627600Y38995600D02*
X120627600Y36245600D01*
X122627600Y9970600D02*
X122627600Y40270600D01*
X113827600Y9970600D02*
X122627600Y9970600D01*
X113827600Y40270600D02*
X113827600Y9970600D01*
X122627600Y40270600D02*
X113827600Y40270600D01*
G04 #@! TO.C,T1*
X51462600Y41270600D02*
X23162600Y41270600D01*
X51462600Y8970600D02*
X51462600Y41270600D01*
X23162600Y8970600D02*
X51462600Y8970600D01*
X23162600Y41270600D02*
X23162600Y8970600D01*
G04 #@! TO.C,R3*
X95732600Y19505600D02*
X95732600Y22115600D01*
X97102600Y18135600D02*
G75*
G03X97102600Y18135600I-1370000J0D01*
G01*
G04 #@! TO.C,R2*
X98907600Y21845600D02*
X98907600Y19235600D01*
X100277600Y23215600D02*
G75*
G03X100277600Y23215600I-1370000J0D01*
G01*
G04 #@! TO.C,C1*
X62912600Y30775246D02*
X61912600Y30775246D01*
X62412600Y31275246D02*
X62412600Y30275246D01*
X60136600Y20714600D02*
X58938600Y20714600D01*
X60399600Y20754600D02*
X58675600Y20754600D01*
X60599600Y20794600D02*
X58475600Y20794600D01*
X60767600Y20834600D02*
X58307600Y20834600D01*
X60915600Y20874600D02*
X58159600Y20874600D01*
X61047600Y20914600D02*
X58027600Y20914600D01*
X61167600Y20954600D02*
X57907600Y20954600D01*
X61279600Y20994600D02*
X57795600Y20994600D01*
X61383600Y21034600D02*
X57691600Y21034600D01*
X61481600Y21074600D02*
X57593600Y21074600D01*
X61574600Y21114600D02*
X57500600Y21114600D01*
X61662600Y21154600D02*
X57412600Y21154600D01*
X61746600Y21194600D02*
X57328600Y21194600D01*
X61826600Y21234600D02*
X57248600Y21234600D01*
X61902600Y21274600D02*
X57172600Y21274600D01*
X61976600Y21314600D02*
X57098600Y21314600D01*
X62047600Y21354600D02*
X57027600Y21354600D01*
X62116600Y21394600D02*
X56958600Y21394600D01*
X62182600Y21434600D02*
X56892600Y21434600D01*
X62246600Y21474600D02*
X56828600Y21474600D01*
X62307600Y21514600D02*
X56767600Y21514600D01*
X62367600Y21554600D02*
X56707600Y21554600D01*
X62426600Y21594600D02*
X56648600Y21594600D01*
X62482600Y21634600D02*
X56592600Y21634600D01*
X62537600Y21674600D02*
X56537600Y21674600D01*
X62591600Y21714600D02*
X56483600Y21714600D01*
X62643600Y21754600D02*
X56431600Y21754600D01*
X62693600Y21794600D02*
X56381600Y21794600D01*
X62743600Y21834600D02*
X56331600Y21834600D01*
X62791600Y21874600D02*
X56283600Y21874600D01*
X62838600Y21914600D02*
X56236600Y21914600D01*
X62884600Y21954600D02*
X56190600Y21954600D01*
X62929600Y21994600D02*
X56145600Y21994600D01*
X62973600Y22034600D02*
X56101600Y22034600D01*
X58296600Y22074600D02*
X56059600Y22074600D01*
X63015600Y22074600D02*
X60778600Y22074600D01*
X58296600Y22114600D02*
X56017600Y22114600D01*
X63057600Y22114600D02*
X60778600Y22114600D01*
X58296600Y22154600D02*
X55976600Y22154600D01*
X63098600Y22154600D02*
X60778600Y22154600D01*
X58296600Y22194600D02*
X55936600Y22194600D01*
X63138600Y22194600D02*
X60778600Y22194600D01*
X58296600Y22234600D02*
X55897600Y22234600D01*
X63177600Y22234600D02*
X60778600Y22234600D01*
X58296600Y22274600D02*
X55858600Y22274600D01*
X63216600Y22274600D02*
X60778600Y22274600D01*
X58296600Y22314600D02*
X55821600Y22314600D01*
X63253600Y22314600D02*
X60778600Y22314600D01*
X58296600Y22354600D02*
X55784600Y22354600D01*
X63290600Y22354600D02*
X60778600Y22354600D01*
X58296600Y22394600D02*
X55748600Y22394600D01*
X63326600Y22394600D02*
X60778600Y22394600D01*
X58296600Y22434600D02*
X55713600Y22434600D01*
X63361600Y22434600D02*
X60778600Y22434600D01*
X58296600Y22474600D02*
X55679600Y22474600D01*
X63395600Y22474600D02*
X60778600Y22474600D01*
X58296600Y22514600D02*
X55645600Y22514600D01*
X63429600Y22514600D02*
X60778600Y22514600D01*
X58296600Y22554600D02*
X55612600Y22554600D01*
X63462600Y22554600D02*
X60778600Y22554600D01*
X58296600Y22594600D02*
X55580600Y22594600D01*
X63494600Y22594600D02*
X60778600Y22594600D01*
X58296600Y22634600D02*
X55548600Y22634600D01*
X63526600Y22634600D02*
X60778600Y22634600D01*
X58296600Y22674600D02*
X55517600Y22674600D01*
X63557600Y22674600D02*
X60778600Y22674600D01*
X58296600Y22714600D02*
X55487600Y22714600D01*
X63587600Y22714600D02*
X60778600Y22714600D01*
X58296600Y22754600D02*
X55457600Y22754600D01*
X63617600Y22754600D02*
X60778600Y22754600D01*
X58296600Y22794600D02*
X55427600Y22794600D01*
X63647600Y22794600D02*
X60778600Y22794600D01*
X58296600Y22834600D02*
X55399600Y22834600D01*
X63675600Y22834600D02*
X60778600Y22834600D01*
X58296600Y22874600D02*
X55371600Y22874600D01*
X63703600Y22874600D02*
X60778600Y22874600D01*
X58296600Y22914600D02*
X55343600Y22914600D01*
X63731600Y22914600D02*
X60778600Y22914600D01*
X58296600Y22954600D02*
X55316600Y22954600D01*
X63758600Y22954600D02*
X60778600Y22954600D01*
X58296600Y22994600D02*
X55290600Y22994600D01*
X63784600Y22994600D02*
X60778600Y22994600D01*
X58296600Y23034600D02*
X55264600Y23034600D01*
X63810600Y23034600D02*
X60778600Y23034600D01*
X58296600Y23074600D02*
X55239600Y23074600D01*
X63835600Y23074600D02*
X60778600Y23074600D01*
X58296600Y23114600D02*
X55214600Y23114600D01*
X63860600Y23114600D02*
X60778600Y23114600D01*
X58296600Y23154600D02*
X55190600Y23154600D01*
X63884600Y23154600D02*
X60778600Y23154600D01*
X58296600Y23194600D02*
X55166600Y23194600D01*
X63908600Y23194600D02*
X60778600Y23194600D01*
X58296600Y23234600D02*
X55142600Y23234600D01*
X63932600Y23234600D02*
X60778600Y23234600D01*
X58296600Y23274600D02*
X55120600Y23274600D01*
X63954600Y23274600D02*
X60778600Y23274600D01*
X58296600Y23314600D02*
X55097600Y23314600D01*
X63977600Y23314600D02*
X60778600Y23314600D01*
X58296600Y23354600D02*
X55075600Y23354600D01*
X63999600Y23354600D02*
X60778600Y23354600D01*
X58296600Y23394600D02*
X55054600Y23394600D01*
X64020600Y23394600D02*
X60778600Y23394600D01*
X58296600Y23434600D02*
X55033600Y23434600D01*
X64041600Y23434600D02*
X60778600Y23434600D01*
X58296600Y23474600D02*
X55012600Y23474600D01*
X64062600Y23474600D02*
X60778600Y23474600D01*
X58296600Y23514600D02*
X54992600Y23514600D01*
X64082600Y23514600D02*
X60778600Y23514600D01*
X58296600Y23554600D02*
X54973600Y23554600D01*
X64101600Y23554600D02*
X60778600Y23554600D01*
X58296600Y23594600D02*
X54953600Y23594600D01*
X64121600Y23594600D02*
X60778600Y23594600D01*
X58296600Y23634600D02*
X54934600Y23634600D01*
X64140600Y23634600D02*
X60778600Y23634600D01*
X58296600Y23674600D02*
X54916600Y23674600D01*
X64158600Y23674600D02*
X60778600Y23674600D01*
X58296600Y23714600D02*
X54898600Y23714600D01*
X64176600Y23714600D02*
X60778600Y23714600D01*
X58296600Y23754600D02*
X54880600Y23754600D01*
X64194600Y23754600D02*
X60778600Y23754600D01*
X58296600Y23794600D02*
X54863600Y23794600D01*
X64211600Y23794600D02*
X60778600Y23794600D01*
X58296600Y23834600D02*
X54847600Y23834600D01*
X64227600Y23834600D02*
X60778600Y23834600D01*
X58296600Y23874600D02*
X54830600Y23874600D01*
X64244600Y23874600D02*
X60778600Y23874600D01*
X58296600Y23914600D02*
X54814600Y23914600D01*
X64260600Y23914600D02*
X60778600Y23914600D01*
X58296600Y23954600D02*
X54799600Y23954600D01*
X64275600Y23954600D02*
X60778600Y23954600D01*
X58296600Y23994600D02*
X54783600Y23994600D01*
X64291600Y23994600D02*
X60778600Y23994600D01*
X58296600Y24034600D02*
X54769600Y24034600D01*
X64305600Y24034600D02*
X60778600Y24034600D01*
X58296600Y24074600D02*
X54754600Y24074600D01*
X64320600Y24074600D02*
X60778600Y24074600D01*
X58296600Y24114600D02*
X54740600Y24114600D01*
X64334600Y24114600D02*
X60778600Y24114600D01*
X58296600Y24154600D02*
X54726600Y24154600D01*
X64348600Y24154600D02*
X60778600Y24154600D01*
X58296600Y24194600D02*
X54713600Y24194600D01*
X64361600Y24194600D02*
X60778600Y24194600D01*
X58296600Y24234600D02*
X54700600Y24234600D01*
X64374600Y24234600D02*
X60778600Y24234600D01*
X58296600Y24274600D02*
X54687600Y24274600D01*
X64387600Y24274600D02*
X60778600Y24274600D01*
X58296600Y24314600D02*
X54675600Y24314600D01*
X64399600Y24314600D02*
X60778600Y24314600D01*
X58296600Y24354600D02*
X54663600Y24354600D01*
X64411600Y24354600D02*
X60778600Y24354600D01*
X58296600Y24394600D02*
X54652600Y24394600D01*
X64422600Y24394600D02*
X60778600Y24394600D01*
X58296600Y24434600D02*
X54640600Y24434600D01*
X64434600Y24434600D02*
X60778600Y24434600D01*
X58296600Y24474600D02*
X54630600Y24474600D01*
X64444600Y24474600D02*
X60778600Y24474600D01*
X58296600Y24514600D02*
X54619600Y24514600D01*
X64455600Y24514600D02*
X60778600Y24514600D01*
X64465600Y24554600D02*
X54609600Y24554600D01*
X64475600Y24594600D02*
X54599600Y24594600D01*
X64484600Y24634600D02*
X54590600Y24634600D01*
X64493600Y24674600D02*
X54581600Y24674600D01*
X64502600Y24714600D02*
X54572600Y24714600D01*
X64511600Y24754600D02*
X54563600Y24754600D01*
X64519600Y24794600D02*
X54555600Y24794600D01*
X64527600Y24834600D02*
X54547600Y24834600D01*
X64534600Y24874600D02*
X54540600Y24874600D01*
X64541600Y24914600D02*
X54533600Y24914600D01*
X64548600Y24954600D02*
X54526600Y24954600D01*
X64555600Y24994600D02*
X54519600Y24994600D01*
X64561600Y25034600D02*
X54513600Y25034600D01*
X64567600Y25074600D02*
X54507600Y25074600D01*
X64572600Y25115600D02*
X54502600Y25115600D01*
X64577600Y25155600D02*
X54497600Y25155600D01*
X64582600Y25195600D02*
X54492600Y25195600D01*
X64587600Y25235600D02*
X54487600Y25235600D01*
X64591600Y25275600D02*
X54483600Y25275600D01*
X64595600Y25315600D02*
X54479600Y25315600D01*
X64599600Y25355600D02*
X54475600Y25355600D01*
X64602600Y25395600D02*
X54472600Y25395600D01*
X64605600Y25435600D02*
X54469600Y25435600D01*
X64607600Y25475600D02*
X54467600Y25475600D01*
X64610600Y25515600D02*
X54464600Y25515600D01*
X64612600Y25555600D02*
X54462600Y25555600D01*
X64614600Y25595600D02*
X54460600Y25595600D01*
X64615600Y25635600D02*
X54459600Y25635600D01*
X64616600Y25675600D02*
X54458600Y25675600D01*
X64617600Y25715600D02*
X54457600Y25715600D01*
X64617600Y25755600D02*
X54457600Y25755600D01*
X64617600Y25795600D02*
X54457600Y25795600D01*
X64657600Y25795600D02*
G75*
G03X64657600Y25795600I-5120000J0D01*
G01*
G04 #@! TO.C,C3*
X72587600Y26390600D02*
G75*
G03X72587600Y26390600I-2870000J0D01*
G01*
X72789862Y24775600D02*
X72239862Y24775600D01*
X72514862Y24500600D02*
X72514862Y25050600D01*
G04 #@! TO.C,D1*
X58467600Y10695600D02*
X55527600Y10695600D01*
X55527600Y10695600D02*
X55527600Y5255600D01*
X55527600Y5255600D02*
X58467600Y5255600D01*
X58467600Y5255600D02*
X58467600Y10695600D01*
X56997600Y11715600D02*
X56997600Y10695600D01*
X56997600Y4235600D02*
X56997600Y5255600D01*
X58467600Y9795600D02*
X55527600Y9795600D01*
X58467600Y9675600D02*
X55527600Y9675600D01*
X58467600Y9915600D02*
X55527600Y9915600D01*
G04 #@! TO.C,D2*
X66087600Y9915600D02*
X63147600Y9915600D01*
X66087600Y9675600D02*
X63147600Y9675600D01*
X66087600Y9795600D02*
X63147600Y9795600D01*
X64617600Y4235600D02*
X64617600Y5255600D01*
X64617600Y11715600D02*
X64617600Y10695600D01*
X66087600Y5255600D02*
X66087600Y10695600D01*
X63147600Y5255600D02*
X66087600Y5255600D01*
X63147600Y10695600D02*
X63147600Y5255600D01*
X66087600Y10695600D02*
X63147600Y10695600D01*
G04 #@! TO.C,D3*
X59337600Y6035600D02*
X62277600Y6035600D01*
X59337600Y6275600D02*
X62277600Y6275600D01*
X59337600Y6155600D02*
X62277600Y6155600D01*
X60807600Y11715600D02*
X60807600Y10695600D01*
X60807600Y4235600D02*
X60807600Y5255600D01*
X59337600Y10695600D02*
X59337600Y5255600D01*
X62277600Y10695600D02*
X59337600Y10695600D01*
X62277600Y5255600D02*
X62277600Y10695600D01*
X59337600Y5255600D02*
X62277600Y5255600D01*
G04 #@! TO.C,D4*
X66957600Y5255600D02*
X69897600Y5255600D01*
X69897600Y5255600D02*
X69897600Y10695600D01*
X69897600Y10695600D02*
X66957600Y10695600D01*
X66957600Y10695600D02*
X66957600Y5255600D01*
X68427600Y4235600D02*
X68427600Y5255600D01*
X68427600Y11715600D02*
X68427600Y10695600D01*
X66957600Y6155600D02*
X69897600Y6155600D01*
X66957600Y6275600D02*
X69897600Y6275600D01*
X66957600Y6035600D02*
X69897600Y6035600D01*
G04 #@! TO.C,F1*
X15272600Y28120600D02*
X18712600Y28120600D01*
X18712600Y28120600D02*
X18712600Y37360600D01*
X18712600Y37360600D02*
X15272600Y37360600D01*
X15272600Y37360600D02*
X15272600Y28120600D01*
X16992600Y27430600D02*
X16992600Y28120600D01*
X16992600Y38050600D02*
X16992600Y37360600D01*
G04 #@! TO.C,HS1*
X69972600Y45435600D02*
X65612600Y45435600D01*
X55962600Y49025600D02*
X58312600Y49025600D01*
X59672600Y49025600D02*
X61962600Y49025600D01*
X59672600Y44035600D02*
X59672600Y49025600D01*
X63322600Y41845600D02*
X63322600Y49025600D01*
X61962600Y41845600D02*
X63322600Y41845600D01*
X63322600Y49025600D02*
X65612600Y49025600D01*
X65612600Y49025600D02*
X65612600Y45435600D01*
X58312600Y49025600D02*
X58312600Y44035600D01*
X61962600Y41845600D02*
X61962600Y49025600D01*
X58312600Y44035600D02*
X59672600Y44035600D01*
X69972600Y49025600D02*
X69972600Y45435600D01*
X72262600Y49025600D02*
X69972600Y49025600D01*
X72262600Y41845600D02*
X72262600Y49025600D01*
X73622600Y41845600D02*
X72262600Y41845600D01*
X73622600Y41845600D02*
X73622600Y49025600D01*
X75912600Y49025600D02*
X73622600Y49025600D01*
X75912600Y44035600D02*
X75912600Y49025600D01*
X77272600Y44035600D02*
X75912600Y44035600D01*
X77272600Y49025600D02*
X77272600Y44035600D01*
X79612600Y49025600D02*
X77272600Y49025600D01*
X60352600Y38605600D02*
X62602600Y38605600D01*
X60352600Y39605600D02*
X60352600Y38605600D01*
X55962600Y33785600D02*
X55962600Y49025600D01*
X55962600Y33785600D02*
X58302600Y33785600D01*
X62602600Y38605600D02*
X62602600Y39605600D01*
X58302600Y33785600D02*
X58302600Y39605600D01*
X58302600Y39605600D02*
X60352600Y39605600D01*
X72972600Y39605600D02*
X62602600Y39605600D01*
X72972600Y38605600D02*
X72972600Y39605600D01*
X75222600Y38605600D02*
X72972600Y38605600D01*
X75222600Y39605600D02*
X75222600Y38605600D01*
X77272600Y39605600D02*
X75222600Y39605600D01*
X77272600Y33785600D02*
X77272600Y39605600D01*
X79612600Y33785600D02*
X77272600Y33785600D01*
X79612600Y33785600D02*
X79612600Y49025600D01*
G04 #@! TO.C,HS2*
X87087600Y16455600D02*
X87087600Y1215600D01*
X87087600Y16455600D02*
X89427600Y16455600D01*
X89427600Y16455600D02*
X89427600Y10635600D01*
X89427600Y10635600D02*
X91477600Y10635600D01*
X91477600Y10635600D02*
X91477600Y11635600D01*
X91477600Y11635600D02*
X93727600Y11635600D01*
X93727600Y11635600D02*
X93727600Y10635600D01*
X93727600Y10635600D02*
X104097600Y10635600D01*
X108397600Y10635600D02*
X106347600Y10635600D01*
X108397600Y16455600D02*
X108397600Y10635600D01*
X104097600Y11635600D02*
X104097600Y10635600D01*
X110737600Y16455600D02*
X108397600Y16455600D01*
X110737600Y16455600D02*
X110737600Y1215600D01*
X106347600Y10635600D02*
X106347600Y11635600D01*
X106347600Y11635600D02*
X104097600Y11635600D01*
X87087600Y1215600D02*
X89427600Y1215600D01*
X89427600Y1215600D02*
X89427600Y6205600D01*
X89427600Y6205600D02*
X90787600Y6205600D01*
X90787600Y6205600D02*
X90787600Y1215600D01*
X90787600Y1215600D02*
X93077600Y1215600D01*
X93077600Y8395600D02*
X93077600Y1215600D01*
X93077600Y8395600D02*
X94437600Y8395600D01*
X94437600Y8395600D02*
X94437600Y1215600D01*
X94437600Y1215600D02*
X96727600Y1215600D01*
X96727600Y1215600D02*
X96727600Y4805600D01*
X108387600Y6205600D02*
X107027600Y6205600D01*
X104737600Y8395600D02*
X104737600Y1215600D01*
X108387600Y1215600D02*
X108387600Y6205600D01*
X101087600Y1215600D02*
X101087600Y4805600D01*
X103377600Y1215600D02*
X101087600Y1215600D01*
X104737600Y8395600D02*
X103377600Y8395600D01*
X103377600Y8395600D02*
X103377600Y1215600D01*
X107027600Y6205600D02*
X107027600Y1215600D01*
X107027600Y1215600D02*
X104737600Y1215600D01*
X110737600Y1215600D02*
X108387600Y1215600D01*
X96727600Y4805600D02*
X101087600Y4805600D01*
G04 #@! TO.C,Q1*
X97056600Y10115800D02*
X97056600Y11625800D01*
X100757600Y10115800D02*
X100757600Y11625800D01*
X104027600Y11625800D02*
X93787600Y11625800D01*
X93787600Y10115800D02*
X93787600Y14756800D01*
X104027600Y10115800D02*
X104027600Y14756800D01*
X104027600Y14756800D02*
X93787600Y14756800D01*
X104027600Y10115800D02*
X93787600Y10115800D01*
G04 #@! TO.C,R1*
X72772600Y4705600D02*
X75512600Y4705600D01*
X75512600Y4705600D02*
X75512600Y11245600D01*
X75512600Y11245600D02*
X72772600Y11245600D01*
X72772600Y11245600D02*
X72772600Y4705600D01*
X74142600Y3935600D02*
X74142600Y4705600D01*
X74142600Y12015600D02*
X74142600Y11245600D01*
G04 #@! TO.C,R4*
X105352600Y38990600D02*
X105352600Y41730600D01*
X105352600Y41730600D02*
X98812600Y41730600D01*
X98812600Y41730600D02*
X98812600Y38990600D01*
X98812600Y38990600D02*
X105352600Y38990600D01*
X106122600Y40360600D02*
X105352600Y40360600D01*
X98042600Y40360600D02*
X98812600Y40360600D01*
G04 #@! TO.C,R5*
X98042600Y43535600D02*
X98812600Y43535600D01*
X106122600Y43535600D02*
X105352600Y43535600D01*
X98812600Y42165600D02*
X105352600Y42165600D01*
X98812600Y44905600D02*
X98812600Y42165600D01*
X105352600Y44905600D02*
X98812600Y44905600D01*
X105352600Y42165600D02*
X105352600Y44905600D01*
G04 #@! TO.C,R6*
X106122600Y37185600D02*
X105352600Y37185600D01*
X98042600Y37185600D02*
X98812600Y37185600D01*
X105352600Y38555600D02*
X98812600Y38555600D01*
X105352600Y35815600D02*
X105352600Y38555600D01*
X98812600Y35815600D02*
X105352600Y35815600D01*
X98812600Y38555600D02*
X98812600Y35815600D01*
G04 #@! TO.C,R7*
X98812600Y35380600D02*
X98812600Y32640600D01*
X98812600Y32640600D02*
X105352600Y32640600D01*
X105352600Y32640600D02*
X105352600Y35380600D01*
X105352600Y35380600D02*
X98812600Y35380600D01*
X98042600Y34010600D02*
X98812600Y34010600D01*
X106122600Y34010600D02*
X105352600Y34010600D01*
G04 #@! TO.C,R8*
X98042600Y30835600D02*
X98812600Y30835600D01*
X106122600Y30835600D02*
X105352600Y30835600D01*
X98812600Y29465600D02*
X105352600Y29465600D01*
X98812600Y32205600D02*
X98812600Y29465600D01*
X105352600Y32205600D02*
X98812600Y32205600D01*
X105352600Y29465600D02*
X105352600Y32205600D01*
D10*
G04 #@! TO.C,RV1*
X15045100Y18500600D02*
X15045100Y11500600D01*
X18945100Y18500600D02*
X18945100Y11500600D01*
X18945100Y11500600D02*
X15045100Y11500600D01*
X18945100Y18500600D02*
X15045100Y18500600D01*
D12*
G04 #@! TO.C,RV2*
X77817600Y5725600D02*
X77817600Y10570600D01*
X84357600Y5725600D02*
X84357600Y10570600D01*
X77817600Y10570600D02*
X84357600Y10570600D01*
X79653600Y4679600D02*
X82522600Y4679600D01*
X79967600Y4679600D02*
X82207600Y4679600D01*
X79967600Y10570600D02*
X82207600Y10570600D01*
G04 #@! TO.C,SW1*
X82612600Y46345600D02*
X82612600Y41845600D01*
X86612600Y47595600D02*
X85112600Y47595600D01*
X89112600Y41845600D02*
X89112600Y46345600D01*
X85112600Y40595600D02*
X86612600Y40595600D01*
G04 #@! TO.C,U1*
X62659900Y40125400D02*
X72899900Y40125400D01*
X62659900Y35484400D02*
X72899900Y35484400D01*
X62659900Y40125400D02*
X62659900Y35484400D01*
X72899900Y40125400D02*
X72899900Y35484400D01*
X62659900Y38615400D02*
X72899900Y38615400D01*
X65929900Y40125400D02*
X65929900Y38615400D01*
X69630900Y40125400D02*
X69630900Y38615400D01*
G04 #@! TO.C,U2*
X92430600Y25628600D02*
X110464600Y25628600D01*
X110464600Y25628600D02*
X110464600Y48996600D01*
X110464600Y48996600D02*
X105384600Y48996600D01*
X105384600Y48996600D02*
X105384600Y49377600D01*
X105384600Y49377600D02*
X97510600Y49377600D01*
X97510600Y49377600D02*
X97510600Y48996600D01*
X97510600Y48996600D02*
X92430600Y48996600D01*
X92430600Y48996600D02*
X92430600Y25628600D01*
G04 #@! TD*
G04 #@! TO.C,D5*
D10*
X106805504Y46004220D02*
X106805504Y47004220D01*
X107043600Y47004220D01*
X107186457Y46956600D01*
X107281695Y46861362D01*
X107329314Y46766124D01*
X107376933Y46575648D01*
X107376933Y46432791D01*
X107329314Y46242315D01*
X107281695Y46147077D01*
X107186457Y46051839D01*
X107043600Y46004220D01*
X106805504Y46004220D01*
X108281695Y47004220D02*
X107805504Y47004220D01*
X107757885Y46528029D01*
X107805504Y46575648D01*
X107900742Y46623267D01*
X108138838Y46623267D01*
X108234076Y46575648D01*
X108281695Y46528029D01*
X108329314Y46432791D01*
X108329314Y46194696D01*
X108281695Y46099458D01*
X108234076Y46051839D01*
X108138838Y46004220D01*
X107900742Y46004220D01*
X107805504Y46051839D01*
X107757885Y46099458D01*
X97375695Y47804220D02*
X97375695Y48804220D01*
X97947123Y47804220D02*
X97518552Y48375648D01*
X97947123Y48804220D02*
X97375695Y48232791D01*
G04 #@! TO.C,C2*
X63180933Y17143458D02*
X63133314Y17095839D01*
X62990457Y17048220D01*
X62895219Y17048220D01*
X62752361Y17095839D01*
X62657123Y17191077D01*
X62609504Y17286315D01*
X62561885Y17476791D01*
X62561885Y17619648D01*
X62609504Y17810124D01*
X62657123Y17905362D01*
X62752361Y18000600D01*
X62895219Y18048220D01*
X62990457Y18048220D01*
X63133314Y18000600D01*
X63180933Y17952981D01*
X63561885Y17952981D02*
X63609504Y18000600D01*
X63704742Y18048220D01*
X63942838Y18048220D01*
X64038076Y18000600D01*
X64085695Y17952981D01*
X64133314Y17857743D01*
X64133314Y17762505D01*
X64085695Y17619648D01*
X63514266Y17048220D01*
X64133314Y17048220D01*
G04 #@! TO.C,C4*
X80960933Y14603458D02*
X80913314Y14555839D01*
X80770457Y14508220D01*
X80675219Y14508220D01*
X80532361Y14555839D01*
X80437123Y14651077D01*
X80389504Y14746315D01*
X80341885Y14936791D01*
X80341885Y15079648D01*
X80389504Y15270124D01*
X80437123Y15365362D01*
X80532361Y15460600D01*
X80675219Y15508220D01*
X80770457Y15508220D01*
X80913314Y15460600D01*
X80960933Y15412981D01*
X81818076Y15174886D02*
X81818076Y14508220D01*
X81579980Y15555839D02*
X81341885Y14841553D01*
X81960933Y14841553D01*
G04 #@! TO.C,C5*
X85699933Y27470458D02*
X85652314Y27422839D01*
X85509457Y27375220D01*
X85414219Y27375220D01*
X85271361Y27422839D01*
X85176123Y27518077D01*
X85128504Y27613315D01*
X85080885Y27803791D01*
X85080885Y27946648D01*
X85128504Y28137124D01*
X85176123Y28232362D01*
X85271361Y28327600D01*
X85414219Y28375220D01*
X85509457Y28375220D01*
X85652314Y28327600D01*
X85699933Y28279981D01*
X86604695Y28375220D02*
X86128504Y28375220D01*
X86080885Y27899029D01*
X86128504Y27946648D01*
X86223742Y27994267D01*
X86461838Y27994267D01*
X86557076Y27946648D01*
X86604695Y27899029D01*
X86652314Y27803791D01*
X86652314Y27565696D01*
X86604695Y27470458D01*
X86557076Y27422839D01*
X86461838Y27375220D01*
X86223742Y27375220D01*
X86128504Y27422839D01*
X86080885Y27470458D01*
G04 #@! TO.C,J2*
X2867066Y34431220D02*
X2867066Y33716934D01*
X2819447Y33574077D01*
X2724209Y33478839D01*
X2581352Y33431220D01*
X2486114Y33431220D01*
X3295638Y34335981D02*
X3343257Y34383600D01*
X3438495Y34431220D01*
X3676590Y34431220D01*
X3771828Y34383600D01*
X3819447Y34335981D01*
X3867066Y34240743D01*
X3867066Y34145505D01*
X3819447Y34002648D01*
X3248019Y33431220D01*
X3867066Y33431220D01*
G04 #@! TO.C,J1*
X113865066Y42000420D02*
X113865066Y41286134D01*
X113817447Y41143277D01*
X113722209Y41048039D01*
X113579352Y41000420D01*
X113484114Y41000420D01*
X114865066Y41000420D02*
X114293638Y41000420D01*
X114579352Y41000420D02*
X114579352Y42000420D01*
X114484114Y41857562D01*
X114388876Y41762324D01*
X114293638Y41714705D01*
G04 #@! TO.C,T1*
X36550695Y42940220D02*
X37122123Y42940220D01*
X36836409Y41940220D02*
X36836409Y42940220D01*
X37979266Y41940220D02*
X37407838Y41940220D01*
X37693552Y41940220D02*
X37693552Y42940220D01*
X37598314Y42797362D01*
X37503076Y42702124D01*
X37407838Y42654505D01*
G04 #@! TO.C,R3*
X93195933Y20223220D02*
X92862600Y20699410D01*
X92624504Y20223220D02*
X92624504Y21223220D01*
X93005457Y21223220D01*
X93100695Y21175600D01*
X93148314Y21127981D01*
X93195933Y21032743D01*
X93195933Y20889886D01*
X93148314Y20794648D01*
X93100695Y20747029D01*
X93005457Y20699410D01*
X92624504Y20699410D01*
X93529266Y21223220D02*
X94148314Y21223220D01*
X93814980Y20842267D01*
X93957838Y20842267D01*
X94053076Y20794648D01*
X94100695Y20747029D01*
X94148314Y20651791D01*
X94148314Y20413696D01*
X94100695Y20318458D01*
X94053076Y20270839D01*
X93957838Y20223220D01*
X93672123Y20223220D01*
X93576885Y20270839D01*
X93529266Y20318458D01*
G04 #@! TO.C,R2*
X101110933Y20223220D02*
X100777600Y20699410D01*
X100539504Y20223220D02*
X100539504Y21223220D01*
X100920457Y21223220D01*
X101015695Y21175600D01*
X101063314Y21127981D01*
X101110933Y21032743D01*
X101110933Y20889886D01*
X101063314Y20794648D01*
X101015695Y20747029D01*
X100920457Y20699410D01*
X100539504Y20699410D01*
X101491885Y21127981D02*
X101539504Y21175600D01*
X101634742Y21223220D01*
X101872838Y21223220D01*
X101968076Y21175600D01*
X102015695Y21127981D01*
X102063314Y21032743D01*
X102063314Y20937505D01*
X102015695Y20794648D01*
X101444266Y20223220D01*
X102063314Y20223220D01*
G04 #@! TO.C,C1*
X56068933Y31113458D02*
X56021314Y31065839D01*
X55878457Y31018220D01*
X55783219Y31018220D01*
X55640361Y31065839D01*
X55545123Y31161077D01*
X55497504Y31256315D01*
X55449885Y31446791D01*
X55449885Y31589648D01*
X55497504Y31780124D01*
X55545123Y31875362D01*
X55640361Y31970600D01*
X55783219Y32018220D01*
X55878457Y32018220D01*
X56021314Y31970600D01*
X56068933Y31922981D01*
X57021314Y31018220D02*
X56449885Y31018220D01*
X56735600Y31018220D02*
X56735600Y32018220D01*
X56640361Y31875362D01*
X56545123Y31780124D01*
X56449885Y31732505D01*
G04 #@! TO.C,C3*
X69550933Y22033458D02*
X69503314Y21985839D01*
X69360457Y21938220D01*
X69265219Y21938220D01*
X69122361Y21985839D01*
X69027123Y22081077D01*
X68979504Y22176315D01*
X68931885Y22366791D01*
X68931885Y22509648D01*
X68979504Y22700124D01*
X69027123Y22795362D01*
X69122361Y22890600D01*
X69265219Y22938220D01*
X69360457Y22938220D01*
X69503314Y22890600D01*
X69550933Y22842981D01*
X69884266Y22938220D02*
X70503314Y22938220D01*
X70169980Y22557267D01*
X70312838Y22557267D01*
X70408076Y22509648D01*
X70455695Y22462029D01*
X70503314Y22366791D01*
X70503314Y22128696D01*
X70455695Y22033458D01*
X70408076Y21985839D01*
X70312838Y21938220D01*
X70027123Y21938220D01*
X69931885Y21985839D01*
X69884266Y22033458D01*
G04 #@! TO.C,D1*
X56259504Y14762220D02*
X56259504Y15762220D01*
X56497600Y15762220D01*
X56640457Y15714600D01*
X56735695Y15619362D01*
X56783314Y15524124D01*
X56830933Y15333648D01*
X56830933Y15190791D01*
X56783314Y15000315D01*
X56735695Y14905077D01*
X56640457Y14809839D01*
X56497600Y14762220D01*
X56259504Y14762220D01*
X57783314Y14762220D02*
X57211885Y14762220D01*
X57497600Y14762220D02*
X57497600Y15762220D01*
X57402361Y15619362D01*
X57307123Y15524124D01*
X57211885Y15476505D01*
X59549980Y12793696D02*
X58549980Y12793696D01*
X59549980Y13365124D02*
X58978552Y12936553D01*
X58549980Y13365124D02*
X59121409Y12793696D01*
G04 #@! TO.C,D2*
X63879504Y14762220D02*
X63879504Y15762220D01*
X64117600Y15762220D01*
X64260457Y15714600D01*
X64355695Y15619362D01*
X64403314Y15524124D01*
X64450933Y15333648D01*
X64450933Y15190791D01*
X64403314Y15000315D01*
X64355695Y14905077D01*
X64260457Y14809839D01*
X64117600Y14762220D01*
X63879504Y14762220D01*
X64831885Y15666981D02*
X64879504Y15714600D01*
X64974742Y15762220D01*
X65212838Y15762220D01*
X65308076Y15714600D01*
X65355695Y15666981D01*
X65403314Y15571743D01*
X65403314Y15476505D01*
X65355695Y15333648D01*
X64784266Y14762220D01*
X65403314Y14762220D01*
X67169980Y12793696D02*
X66169980Y12793696D01*
X67169980Y13365124D02*
X66598552Y12936553D01*
X66169980Y13365124D02*
X66741409Y12793696D01*
G04 #@! TO.C,D3*
X60069504Y14762220D02*
X60069504Y15762220D01*
X60307600Y15762220D01*
X60450457Y15714600D01*
X60545695Y15619362D01*
X60593314Y15524124D01*
X60640933Y15333648D01*
X60640933Y15190791D01*
X60593314Y15000315D01*
X60545695Y14905077D01*
X60450457Y14809839D01*
X60307600Y14762220D01*
X60069504Y14762220D01*
X60974266Y15762220D02*
X61593314Y15762220D01*
X61259980Y15381267D01*
X61402838Y15381267D01*
X61498076Y15333648D01*
X61545695Y15286029D01*
X61593314Y15190791D01*
X61593314Y14952696D01*
X61545695Y14857458D01*
X61498076Y14809839D01*
X61402838Y14762220D01*
X61117123Y14762220D01*
X61021885Y14809839D01*
X60974266Y14857458D01*
X59159980Y2633696D02*
X58159980Y2633696D01*
X59159980Y3205124D02*
X58588552Y2776553D01*
X58159980Y3205124D02*
X58731409Y2633696D01*
G04 #@! TO.C,D4*
X67689504Y14762220D02*
X67689504Y15762220D01*
X67927600Y15762220D01*
X68070457Y15714600D01*
X68165695Y15619362D01*
X68213314Y15524124D01*
X68260933Y15333648D01*
X68260933Y15190791D01*
X68213314Y15000315D01*
X68165695Y14905077D01*
X68070457Y14809839D01*
X67927600Y14762220D01*
X67689504Y14762220D01*
X69118076Y15428886D02*
X69118076Y14762220D01*
X68879980Y15809839D02*
X68641885Y15095553D01*
X69260933Y15095553D01*
X66779980Y2633696D02*
X65779980Y2633696D01*
X66779980Y3205124D02*
X66208552Y2776553D01*
X65779980Y3205124D02*
X66351409Y2633696D01*
G04 #@! TO.C,F1*
X16684666Y41778229D02*
X16351333Y41778229D01*
X16351333Y41254420D02*
X16351333Y42254420D01*
X16827523Y42254420D01*
X17732285Y41254420D02*
X17160857Y41254420D01*
X17446571Y41254420D02*
X17446571Y42254420D01*
X17351333Y42111562D01*
X17256095Y42016324D01*
X17160857Y41968705D01*
G04 #@! TO.C,Q1*
X105416361Y12888981D02*
X105321123Y12936600D01*
X105225885Y13031839D01*
X105083028Y13174696D01*
X104987790Y13222315D01*
X104892552Y13222315D01*
X104940171Y12984220D02*
X104844933Y13031839D01*
X104749695Y13127077D01*
X104702076Y13317553D01*
X104702076Y13650886D01*
X104749695Y13841362D01*
X104844933Y13936600D01*
X104940171Y13984220D01*
X105130647Y13984220D01*
X105225885Y13936600D01*
X105321123Y13841362D01*
X105368742Y13650886D01*
X105368742Y13317553D01*
X105321123Y13127077D01*
X105225885Y13031839D01*
X105130647Y12984220D01*
X104940171Y12984220D01*
X106321123Y12984220D02*
X105749695Y12984220D01*
X106035409Y12984220D02*
X106035409Y13984220D01*
X105940171Y13841362D01*
X105844933Y13746124D01*
X105749695Y13698505D01*
G04 #@! TO.C,R1*
X74102933Y14508220D02*
X73769600Y14984410D01*
X73531504Y14508220D02*
X73531504Y15508220D01*
X73912457Y15508220D01*
X74007695Y15460600D01*
X74055314Y15412981D01*
X74102933Y15317743D01*
X74102933Y15174886D01*
X74055314Y15079648D01*
X74007695Y15032029D01*
X73912457Y14984410D01*
X73531504Y14984410D01*
X75055314Y14508220D02*
X74483885Y14508220D01*
X74769600Y14508220D02*
X74769600Y15508220D01*
X74674361Y15365362D01*
X74579123Y15270124D01*
X74483885Y15222505D01*
G04 #@! TO.C,R4*
X109154933Y39908220D02*
X108821600Y40384410D01*
X108583504Y39908220D02*
X108583504Y40908220D01*
X108964457Y40908220D01*
X109059695Y40860600D01*
X109107314Y40812981D01*
X109154933Y40717743D01*
X109154933Y40574886D01*
X109107314Y40479648D01*
X109059695Y40432029D01*
X108964457Y40384410D01*
X108583504Y40384410D01*
X110012076Y40574886D02*
X110012076Y39908220D01*
X109773980Y40955839D02*
X109535885Y40241553D01*
X110154933Y40241553D01*
G04 #@! TO.C,R5*
X109154933Y42956220D02*
X108821600Y43432410D01*
X108583504Y42956220D02*
X108583504Y43956220D01*
X108964457Y43956220D01*
X109059695Y43908600D01*
X109107314Y43860981D01*
X109154933Y43765743D01*
X109154933Y43622886D01*
X109107314Y43527648D01*
X109059695Y43480029D01*
X108964457Y43432410D01*
X108583504Y43432410D01*
X110059695Y43956220D02*
X109583504Y43956220D01*
X109535885Y43480029D01*
X109583504Y43527648D01*
X109678742Y43575267D01*
X109916838Y43575267D01*
X110012076Y43527648D01*
X110059695Y43480029D01*
X110107314Y43384791D01*
X110107314Y43146696D01*
X110059695Y43051458D01*
X110012076Y43003839D01*
X109916838Y42956220D01*
X109678742Y42956220D01*
X109583504Y43003839D01*
X109535885Y43051458D01*
G04 #@! TO.C,R6*
X109154933Y36860220D02*
X108821600Y37336410D01*
X108583504Y36860220D02*
X108583504Y37860220D01*
X108964457Y37860220D01*
X109059695Y37812600D01*
X109107314Y37764981D01*
X109154933Y37669743D01*
X109154933Y37526886D01*
X109107314Y37431648D01*
X109059695Y37384029D01*
X108964457Y37336410D01*
X108583504Y37336410D01*
X110012076Y37860220D02*
X109821600Y37860220D01*
X109726361Y37812600D01*
X109678742Y37764981D01*
X109583504Y37622124D01*
X109535885Y37431648D01*
X109535885Y37050696D01*
X109583504Y36955458D01*
X109631123Y36907839D01*
X109726361Y36860220D01*
X109916838Y36860220D01*
X110012076Y36907839D01*
X110059695Y36955458D01*
X110107314Y37050696D01*
X110107314Y37288791D01*
X110059695Y37384029D01*
X110012076Y37431648D01*
X109916838Y37479267D01*
X109726361Y37479267D01*
X109631123Y37431648D01*
X109583504Y37384029D01*
X109535885Y37288791D01*
G04 #@! TO.C,R7*
X109154933Y33558220D02*
X108821600Y34034410D01*
X108583504Y33558220D02*
X108583504Y34558220D01*
X108964457Y34558220D01*
X109059695Y34510600D01*
X109107314Y34462981D01*
X109154933Y34367743D01*
X109154933Y34224886D01*
X109107314Y34129648D01*
X109059695Y34082029D01*
X108964457Y34034410D01*
X108583504Y34034410D01*
X109488266Y34558220D02*
X110154933Y34558220D01*
X109726361Y33558220D01*
G04 #@! TO.C,R8*
X109154933Y30256220D02*
X108821600Y30732410D01*
X108583504Y30256220D02*
X108583504Y31256220D01*
X108964457Y31256220D01*
X109059695Y31208600D01*
X109107314Y31160981D01*
X109154933Y31065743D01*
X109154933Y30922886D01*
X109107314Y30827648D01*
X109059695Y30780029D01*
X108964457Y30732410D01*
X108583504Y30732410D01*
X109726361Y30827648D02*
X109631123Y30875267D01*
X109583504Y30922886D01*
X109535885Y31018124D01*
X109535885Y31065743D01*
X109583504Y31160981D01*
X109631123Y31208600D01*
X109726361Y31256220D01*
X109916838Y31256220D01*
X110012076Y31208600D01*
X110059695Y31160981D01*
X110107314Y31065743D01*
X110107314Y31018124D01*
X110059695Y30922886D01*
X110012076Y30875267D01*
X109916838Y30827648D01*
X109726361Y30827648D01*
X109631123Y30780029D01*
X109583504Y30732410D01*
X109535885Y30637172D01*
X109535885Y30446696D01*
X109583504Y30351458D01*
X109631123Y30303839D01*
X109726361Y30256220D01*
X109916838Y30256220D01*
X110012076Y30303839D01*
X110059695Y30351458D01*
X110107314Y30446696D01*
X110107314Y30637172D01*
X110059695Y30732410D01*
X110012076Y30780029D01*
X109916838Y30827648D01*
G04 #@! TO.C,RV1*
X15305161Y19410420D02*
X14971828Y19886610D01*
X14733733Y19410420D02*
X14733733Y20410420D01*
X15114685Y20410420D01*
X15209923Y20362800D01*
X15257542Y20315181D01*
X15305161Y20219943D01*
X15305161Y20077086D01*
X15257542Y19981848D01*
X15209923Y19934229D01*
X15114685Y19886610D01*
X14733733Y19886610D01*
X15590876Y20410420D02*
X15924209Y19410420D01*
X16257542Y20410420D01*
X17114685Y19410420D02*
X16543257Y19410420D01*
X16828971Y19410420D02*
X16828971Y20410420D01*
X16733733Y20267562D01*
X16638495Y20172324D01*
X16543257Y20124705D01*
G04 #@! TO.C,RV2*
X80532361Y2570220D02*
X80199028Y3046410D01*
X79960933Y2570220D02*
X79960933Y3570220D01*
X80341885Y3570220D01*
X80437123Y3522600D01*
X80484742Y3474981D01*
X80532361Y3379743D01*
X80532361Y3236886D01*
X80484742Y3141648D01*
X80437123Y3094029D01*
X80341885Y3046410D01*
X79960933Y3046410D01*
X80818076Y3570220D02*
X81151409Y2570220D01*
X81484742Y3570220D01*
X81770457Y3474981D02*
X81818076Y3522600D01*
X81913314Y3570220D01*
X82151409Y3570220D01*
X82246647Y3522600D01*
X82294266Y3474981D01*
X82341885Y3379743D01*
X82341885Y3284505D01*
X82294266Y3141648D01*
X81722838Y2570220D01*
X82341885Y2570220D01*
G04 #@! TO.C,SW1*
X84366266Y38177839D02*
X84509123Y38130220D01*
X84747219Y38130220D01*
X84842457Y38177839D01*
X84890076Y38225458D01*
X84937695Y38320696D01*
X84937695Y38415934D01*
X84890076Y38511172D01*
X84842457Y38558791D01*
X84747219Y38606410D01*
X84556742Y38654029D01*
X84461504Y38701648D01*
X84413885Y38749267D01*
X84366266Y38844505D01*
X84366266Y38939743D01*
X84413885Y39034981D01*
X84461504Y39082600D01*
X84556742Y39130220D01*
X84794838Y39130220D01*
X84937695Y39082600D01*
X85271028Y39130220D02*
X85509123Y38130220D01*
X85699600Y38844505D01*
X85890076Y38130220D01*
X86128171Y39130220D01*
X87032933Y38130220D02*
X86461504Y38130220D01*
X86747219Y38130220D02*
X86747219Y39130220D01*
X86651980Y38987362D01*
X86556742Y38892124D01*
X86461504Y38844505D01*
G04 #@! TO.C,U1*
X60553695Y37352220D02*
X60553695Y36542696D01*
X60601314Y36447458D01*
X60648933Y36399839D01*
X60744171Y36352220D01*
X60934647Y36352220D01*
X61029885Y36399839D01*
X61077504Y36447458D01*
X61125123Y36542696D01*
X61125123Y37352220D01*
X62125123Y36352220D02*
X61553695Y36352220D01*
X61839409Y36352220D02*
X61839409Y37352220D01*
X61744171Y37209362D01*
X61648933Y37114124D01*
X61553695Y37066505D01*
G04 #@! TO.C,U2*
X93065695Y27573220D02*
X93065695Y26763696D01*
X93113314Y26668458D01*
X93160933Y26620839D01*
X93256171Y26573220D01*
X93446647Y26573220D01*
X93541885Y26620839D01*
X93589504Y26668458D01*
X93637123Y26763696D01*
X93637123Y27573220D01*
X94065695Y27477981D02*
X94113314Y27525600D01*
X94208552Y27573220D01*
X94446647Y27573220D01*
X94541885Y27525600D01*
X94589504Y27477981D01*
X94637123Y27382743D01*
X94637123Y27287505D01*
X94589504Y27144648D01*
X94018076Y26573220D01*
X94637123Y26573220D01*
G04 #@! TD*
M02*
