G04 #@! TF.GenerationSoftware,KiCad,Pcbnew,5.1.5-52549c5~84~ubuntu18.04.1*
G04 #@! TF.CreationDate,2019-11-25T01:58:10+02:00*
G04 #@! TF.ProjectId,tinydimmer,74696e79-6469-46d6-9d65-722e6b696361,rev?*
G04 #@! TF.SameCoordinates,PX1d369d0PY5483e38*
G04 #@! TF.FileFunction,Soldermask,Bot*
G04 #@! TF.FilePolarity,Negative*
%FSLAX46Y46*%
G04 Gerber Fmt 4.6, Leading zero omitted, Abs format (unit mm)*
G04 Created by KiCad (PCBNEW 5.1.5-52549c5~84~ubuntu18.04.1) date 2019-11-25 01:58:10*
%MOMM*%
%LPD*%
G04 APERTURE LIST*
G04 #@! TA.AperFunction,Profile*
%ADD10C,0.050000*%
G04 #@! TD*
%ADD11C,0.100000*%
G04 APERTURE END LIST*
D10*
X125222000Y50241200D02*
X0Y50241200D01*
X125222000Y0D02*
X125222000Y50241200D01*
X0Y0D02*
X125222000Y0D01*
X0Y50241200D02*
X0Y0D01*
D11*
G36*
X7466839Y7989133D02*
G01*
X7780882Y7926666D01*
X8372526Y7681599D01*
X8799077Y7396586D01*
X8882370Y7340932D01*
X8904992Y7325816D01*
X9357816Y6872992D01*
X9713599Y6340526D01*
X9958666Y5748882D01*
X10083600Y5120796D01*
X10083600Y4480404D01*
X9958666Y3852318D01*
X9713599Y3260674D01*
X9545412Y3008965D01*
X9393917Y2782236D01*
X9357816Y2728208D01*
X8904992Y2275384D01*
X8372526Y1919601D01*
X7780882Y1674534D01*
X7466839Y1612067D01*
X7152797Y1549600D01*
X6512403Y1549600D01*
X6198361Y1612067D01*
X5884318Y1674534D01*
X5292674Y1919601D01*
X4760208Y2275384D01*
X4307384Y2728208D01*
X4271284Y2782236D01*
X4119788Y3008965D01*
X3951601Y3260674D01*
X3706534Y3852318D01*
X3581600Y4480404D01*
X3581600Y5120796D01*
X3706534Y5748882D01*
X3951601Y6340526D01*
X4307384Y6872992D01*
X4760208Y7325816D01*
X4782831Y7340932D01*
X4866123Y7396586D01*
X5292674Y7681599D01*
X5884318Y7926666D01*
X6198361Y7989133D01*
X6512403Y8051600D01*
X7152797Y8051600D01*
X7466839Y7989133D01*
G37*
G36*
X118861839Y7989133D02*
G01*
X119175882Y7926666D01*
X119767526Y7681599D01*
X120194077Y7396586D01*
X120277370Y7340932D01*
X120299992Y7325816D01*
X120752816Y6872992D01*
X121108599Y6340526D01*
X121353666Y5748882D01*
X121478600Y5120796D01*
X121478600Y4480404D01*
X121353666Y3852318D01*
X121108599Y3260674D01*
X120940412Y3008965D01*
X120788917Y2782236D01*
X120752816Y2728208D01*
X120299992Y2275384D01*
X119767526Y1919601D01*
X119175882Y1674534D01*
X118861839Y1612067D01*
X118547797Y1549600D01*
X117907403Y1549600D01*
X117593361Y1612067D01*
X117279318Y1674534D01*
X116687674Y1919601D01*
X116155208Y2275384D01*
X115702384Y2728208D01*
X115666284Y2782236D01*
X115514788Y3008965D01*
X115346601Y3260674D01*
X115101534Y3852318D01*
X114976600Y4480404D01*
X114976600Y5120796D01*
X115101534Y5748882D01*
X115346601Y6340526D01*
X115702384Y6872992D01*
X116155208Y7325816D01*
X116177831Y7340932D01*
X116261123Y7396586D01*
X116687674Y7681599D01*
X117279318Y7926666D01*
X117593361Y7989133D01*
X117907403Y8051600D01*
X118547797Y8051600D01*
X118861839Y7989133D01*
G37*
G36*
X69578600Y1744600D02*
G01*
X67276600Y1744600D01*
X67276600Y4046600D01*
X69578600Y4046600D01*
X69578600Y1744600D01*
G37*
G36*
X57222149Y4024484D02*
G01*
X57333334Y4002368D01*
X57542803Y3915603D01*
X57731320Y3789640D01*
X57891640Y3629320D01*
X58017603Y3440803D01*
X58017604Y3440801D01*
X58104368Y3231333D01*
X58148600Y3008965D01*
X58148600Y2782235D01*
X58104368Y2559867D01*
X58018731Y2353119D01*
X58017603Y2350397D01*
X57891640Y2161880D01*
X57731320Y2001560D01*
X57542803Y1875597D01*
X57333334Y1788832D01*
X57222149Y1766716D01*
X57110965Y1744600D01*
X56884235Y1744600D01*
X56773051Y1766716D01*
X56661866Y1788832D01*
X56452397Y1875597D01*
X56263880Y2001560D01*
X56103560Y2161880D01*
X55977597Y2350397D01*
X55976470Y2353119D01*
X55890832Y2559867D01*
X55846600Y2782235D01*
X55846600Y3008965D01*
X55890832Y3231333D01*
X55977596Y3440801D01*
X55977597Y3440803D01*
X56103560Y3629320D01*
X56263880Y3789640D01*
X56452397Y3915603D01*
X56661866Y4002368D01*
X56773051Y4024484D01*
X56884235Y4046600D01*
X57110965Y4046600D01*
X57222149Y4024484D01*
G37*
G36*
X64842149Y4024484D02*
G01*
X64953334Y4002368D01*
X65162803Y3915603D01*
X65351320Y3789640D01*
X65511640Y3629320D01*
X65637603Y3440803D01*
X65637604Y3440801D01*
X65724368Y3231333D01*
X65768600Y3008965D01*
X65768600Y2782235D01*
X65724368Y2559867D01*
X65638731Y2353119D01*
X65637603Y2350397D01*
X65511640Y2161880D01*
X65351320Y2001560D01*
X65162803Y1875597D01*
X64953334Y1788832D01*
X64842149Y1766716D01*
X64730965Y1744600D01*
X64504235Y1744600D01*
X64393051Y1766716D01*
X64281866Y1788832D01*
X64072397Y1875597D01*
X63883880Y2001560D01*
X63723560Y2161880D01*
X63597597Y2350397D01*
X63596470Y2353119D01*
X63510832Y2559867D01*
X63466600Y2782235D01*
X63466600Y3008965D01*
X63510832Y3231333D01*
X63597596Y3440801D01*
X63597597Y3440803D01*
X63723560Y3629320D01*
X63883880Y3789640D01*
X64072397Y3915603D01*
X64281866Y4002368D01*
X64393051Y4024484D01*
X64504235Y4046600D01*
X64730965Y4046600D01*
X64842149Y4024484D01*
G37*
G36*
X61958600Y1744600D02*
G01*
X59656600Y1744600D01*
X59656600Y4046600D01*
X61958600Y4046600D01*
X61958600Y1744600D01*
G37*
G36*
X74390828Y3713897D02*
G01*
X74545700Y3649747D01*
X74685081Y3556615D01*
X74803615Y3438081D01*
X74896747Y3298700D01*
X74960897Y3143828D01*
X74993600Y2979416D01*
X74993600Y2811784D01*
X74960897Y2647372D01*
X74896747Y2492500D01*
X74803615Y2353119D01*
X74685081Y2234585D01*
X74545700Y2141453D01*
X74390828Y2077303D01*
X74226416Y2044600D01*
X74058784Y2044600D01*
X73894372Y2077303D01*
X73739500Y2141453D01*
X73600119Y2234585D01*
X73481585Y2353119D01*
X73388453Y2492500D01*
X73324303Y2647372D01*
X73291600Y2811784D01*
X73291600Y2979416D01*
X73324303Y3143828D01*
X73388453Y3298700D01*
X73481585Y3438081D01*
X73600119Y3556615D01*
X73739500Y3649747D01*
X73894372Y3713897D01*
X74058784Y3746600D01*
X74226416Y3746600D01*
X74390828Y3713897D01*
G37*
G36*
X83838743Y5628513D02*
G01*
X83995438Y5563608D01*
X84136453Y5469385D01*
X84256385Y5349453D01*
X84350608Y5208438D01*
X84415513Y5051743D01*
X84448600Y4885402D01*
X84448600Y4715798D01*
X84415513Y4549457D01*
X84350608Y4392762D01*
X84256385Y4251747D01*
X84136453Y4131815D01*
X83995438Y4037592D01*
X83838743Y3972687D01*
X83672402Y3939600D01*
X83502798Y3939600D01*
X83336457Y3972687D01*
X83179762Y4037592D01*
X83038747Y4131815D01*
X82918815Y4251747D01*
X82824592Y4392762D01*
X82759687Y4549457D01*
X82726600Y4715798D01*
X82726600Y4885402D01*
X82759687Y5051743D01*
X82824592Y5208438D01*
X82918815Y5349453D01*
X83038747Y5469385D01*
X83179762Y5563608D01*
X83336457Y5628513D01*
X83502798Y5661600D01*
X83672402Y5661600D01*
X83838743Y5628513D01*
G37*
G36*
X78838743Y5628513D02*
G01*
X78995438Y5563608D01*
X79136453Y5469385D01*
X79256385Y5349453D01*
X79350608Y5208438D01*
X79415513Y5051743D01*
X79448600Y4885402D01*
X79448600Y4715798D01*
X79415513Y4549457D01*
X79350608Y4392762D01*
X79256385Y4251747D01*
X79136453Y4131815D01*
X78995438Y4037592D01*
X78838743Y3972687D01*
X78672402Y3939600D01*
X78502798Y3939600D01*
X78336457Y3972687D01*
X78179762Y4037592D01*
X78038747Y4131815D01*
X77918815Y4251747D01*
X77824592Y4392762D01*
X77759687Y4549457D01*
X77726600Y4715798D01*
X77726600Y4885402D01*
X77759687Y5051743D01*
X77824592Y5208438D01*
X77918815Y5349453D01*
X78038747Y5469385D01*
X78179762Y5563608D01*
X78336457Y5628513D01*
X78502798Y5661600D01*
X78672402Y5661600D01*
X78838743Y5628513D01*
G37*
G36*
X99432931Y8547389D02*
G01*
X99760692Y8411626D01*
X100055670Y8214528D01*
X100306528Y7963670D01*
X100503626Y7668692D01*
X100639389Y7340931D01*
X100708600Y6992984D01*
X100708600Y6638216D01*
X100639389Y6290269D01*
X100503626Y5962508D01*
X100306528Y5667530D01*
X100055670Y5416672D01*
X99760692Y5219574D01*
X99432931Y5083811D01*
X99084984Y5014600D01*
X98730216Y5014600D01*
X98382269Y5083811D01*
X98054508Y5219574D01*
X97759530Y5416672D01*
X97508672Y5667530D01*
X97311574Y5962508D01*
X97175811Y6290269D01*
X97106600Y6638216D01*
X97106600Y6992984D01*
X97175811Y7340931D01*
X97311574Y7668692D01*
X97508672Y7963670D01*
X97759530Y8214528D01*
X98054508Y8411626D01*
X98382269Y8547389D01*
X98730216Y8616600D01*
X99084984Y8616600D01*
X99432931Y8547389D01*
G37*
G36*
X81338743Y10628513D02*
G01*
X81495438Y10563608D01*
X81636453Y10469385D01*
X81756385Y10349453D01*
X81850608Y10208438D01*
X81915513Y10051743D01*
X81948600Y9885402D01*
X81948600Y9715798D01*
X81915513Y9549457D01*
X81850608Y9392762D01*
X81756385Y9251747D01*
X81636453Y9131815D01*
X81495438Y9037592D01*
X81338743Y8972687D01*
X81172402Y8939600D01*
X81002798Y8939600D01*
X80836457Y8972687D01*
X80679762Y9037592D01*
X80538747Y9131815D01*
X80418815Y9251747D01*
X80324592Y9392762D01*
X80259687Y9549457D01*
X80226600Y9715798D01*
X80226600Y9885402D01*
X80259687Y10051743D01*
X80324592Y10208438D01*
X80418815Y10349453D01*
X80538747Y10469385D01*
X80679762Y10563608D01*
X80836457Y10628513D01*
X81002798Y10661600D01*
X81172402Y10661600D01*
X81338743Y10628513D01*
G37*
G36*
X118433632Y13906393D02*
G01*
X118631746Y13846295D01*
X118631749Y13846294D01*
X118682475Y13819180D01*
X118814329Y13748703D01*
X118974365Y13617365D01*
X119105703Y13457329D01*
X119119249Y13431985D01*
X119203294Y13274748D01*
X119203295Y13274745D01*
X119263393Y13076631D01*
X119263393Y13076629D01*
X119275627Y12952420D01*
X119278600Y12922229D01*
X119278600Y12318970D01*
X119263393Y12164568D01*
X119214310Y12002765D01*
X119203294Y11966451D01*
X119193876Y11948832D01*
X119105703Y11783871D01*
X118974365Y11623835D01*
X118814329Y11492497D01*
X118734073Y11449600D01*
X118631748Y11394906D01*
X118631745Y11394905D01*
X118433631Y11334807D01*
X118227600Y11314515D01*
X118021568Y11334807D01*
X117823454Y11394905D01*
X117823451Y11394906D01*
X117721126Y11449600D01*
X117640871Y11492497D01*
X117480835Y11623835D01*
X117349497Y11783871D01*
X117284967Y11904600D01*
X117251906Y11966452D01*
X117251905Y11966455D01*
X117191807Y12164569D01*
X117176600Y12318971D01*
X117176600Y12922230D01*
X117191807Y13076632D01*
X117231872Y13208708D01*
X117251905Y13274747D01*
X117335951Y13431984D01*
X117349498Y13457329D01*
X117480836Y13617365D01*
X117640872Y13748703D01*
X117772726Y13819180D01*
X117823452Y13846294D01*
X117823455Y13846295D01*
X118021569Y13906393D01*
X118227600Y13926685D01*
X118433632Y13906393D01*
G37*
G36*
X16351664Y13511211D02*
G01*
X16481749Y13457328D01*
X16542935Y13431984D01*
X16715073Y13316965D01*
X16861465Y13170573D01*
X16880838Y13141580D01*
X16976485Y12998433D01*
X17055711Y12807164D01*
X17096100Y12604116D01*
X17096100Y12397084D01*
X17055711Y12194036D01*
X16990083Y12035596D01*
X16976484Y12002765D01*
X16861465Y11830627D01*
X16715073Y11684235D01*
X16542935Y11569216D01*
X16542934Y11569215D01*
X16542933Y11569215D01*
X16351664Y11489989D01*
X16148616Y11449600D01*
X15941584Y11449600D01*
X15738536Y11489989D01*
X15547267Y11569215D01*
X15547266Y11569215D01*
X15547265Y11569216D01*
X15375127Y11684235D01*
X15228735Y11830627D01*
X15113716Y12002765D01*
X15100117Y12035596D01*
X15034489Y12194036D01*
X14994100Y12397084D01*
X14994100Y12604116D01*
X15034489Y12807164D01*
X15113715Y12998433D01*
X15209363Y13141580D01*
X15228735Y13170573D01*
X15375127Y13316965D01*
X15547265Y13431984D01*
X15608451Y13457328D01*
X15738536Y13511211D01*
X15941584Y13551600D01*
X16148616Y13551600D01*
X16351664Y13511211D01*
G37*
G36*
X68652149Y14184484D02*
G01*
X68763334Y14162368D01*
X68972803Y14075603D01*
X69161320Y13949640D01*
X69321640Y13789320D01*
X69447603Y13600803D01*
X69447604Y13600801D01*
X69448731Y13598080D01*
X69517530Y13431985D01*
X69534368Y13391333D01*
X69578600Y13168965D01*
X69578600Y12942235D01*
X69534368Y12719867D01*
X69448731Y12513119D01*
X69447603Y12510397D01*
X69321640Y12321880D01*
X69161320Y12161560D01*
X68972803Y12035597D01*
X68763334Y11948832D01*
X68652149Y11926716D01*
X68540965Y11904600D01*
X68314235Y11904600D01*
X68203051Y11926716D01*
X68091866Y11948832D01*
X67882397Y12035597D01*
X67693880Y12161560D01*
X67533560Y12321880D01*
X67407597Y12510397D01*
X67406470Y12513119D01*
X67320832Y12719867D01*
X67276600Y12942235D01*
X67276600Y13168965D01*
X67320832Y13391333D01*
X67337671Y13431985D01*
X67406469Y13598080D01*
X67407596Y13600801D01*
X67407597Y13600803D01*
X67533560Y13789320D01*
X67693880Y13949640D01*
X67882397Y14075603D01*
X68091866Y14162368D01*
X68203051Y14184484D01*
X68314235Y14206600D01*
X68540965Y14206600D01*
X68652149Y14184484D01*
G37*
G36*
X65768600Y11904600D02*
G01*
X63466600Y11904600D01*
X63466600Y14206600D01*
X65768600Y14206600D01*
X65768600Y11904600D01*
G37*
G36*
X58148600Y11904600D02*
G01*
X55846600Y11904600D01*
X55846600Y14206600D01*
X58148600Y14206600D01*
X58148600Y11904600D01*
G37*
G36*
X61032149Y14184484D02*
G01*
X61143334Y14162368D01*
X61352803Y14075603D01*
X61541320Y13949640D01*
X61701640Y13789320D01*
X61827603Y13600803D01*
X61827604Y13600801D01*
X61828731Y13598080D01*
X61897530Y13431985D01*
X61914368Y13391333D01*
X61958600Y13168965D01*
X61958600Y12942235D01*
X61914368Y12719867D01*
X61828731Y12513119D01*
X61827603Y12510397D01*
X61701640Y12321880D01*
X61541320Y12161560D01*
X61352803Y12035597D01*
X61143334Y11948832D01*
X61032149Y11926716D01*
X60920965Y11904600D01*
X60694235Y11904600D01*
X60583051Y11926716D01*
X60471866Y11948832D01*
X60262397Y12035597D01*
X60073880Y12161560D01*
X59913560Y12321880D01*
X59787597Y12510397D01*
X59786470Y12513119D01*
X59700832Y12719867D01*
X59656600Y12942235D01*
X59656600Y13168965D01*
X59700832Y13391333D01*
X59717671Y13431985D01*
X59786469Y13598080D01*
X59787596Y13600801D01*
X59787597Y13600803D01*
X59913560Y13789320D01*
X60073880Y13949640D01*
X60262397Y14075603D01*
X60471866Y14162368D01*
X60583051Y14184484D01*
X60694235Y14206600D01*
X60920965Y14206600D01*
X61032149Y14184484D01*
G37*
G36*
X74390828Y13873897D02*
G01*
X74545700Y13809747D01*
X74685081Y13716615D01*
X74803615Y13598081D01*
X74896747Y13458700D01*
X74960897Y13303828D01*
X74993600Y13139416D01*
X74993600Y12971784D01*
X74960897Y12807372D01*
X74896747Y12652500D01*
X74803615Y12513119D01*
X74685081Y12394585D01*
X74545700Y12301453D01*
X74390828Y12237303D01*
X74226416Y12204600D01*
X74058784Y12204600D01*
X73894372Y12237303D01*
X73739500Y12301453D01*
X73600119Y12394585D01*
X73481585Y12513119D01*
X73388453Y12652500D01*
X73324303Y12807372D01*
X73291600Y12971784D01*
X73291600Y13139416D01*
X73324303Y13303828D01*
X73388453Y13458700D01*
X73481585Y13598081D01*
X73600119Y13716615D01*
X73739500Y13809747D01*
X73894372Y13873897D01*
X74058784Y13906600D01*
X74226416Y13906600D01*
X74390828Y13873897D01*
G37*
G36*
X79470828Y13873897D02*
G01*
X79625700Y13809747D01*
X79765081Y13716615D01*
X79883615Y13598081D01*
X79976747Y13458700D01*
X80040897Y13303828D01*
X80073600Y13139416D01*
X80073600Y12971784D01*
X80040897Y12807372D01*
X79976747Y12652500D01*
X79883615Y12513119D01*
X79765081Y12394585D01*
X79625700Y12301453D01*
X79470828Y12237303D01*
X79306416Y12204600D01*
X79138784Y12204600D01*
X78974372Y12237303D01*
X78819500Y12301453D01*
X78680119Y12394585D01*
X78561585Y12513119D01*
X78468453Y12652500D01*
X78404303Y12807372D01*
X78371600Y12971784D01*
X78371600Y13139416D01*
X78404303Y13303828D01*
X78468453Y13458700D01*
X78561585Y13598081D01*
X78680119Y13716615D01*
X78819500Y13809747D01*
X78974372Y13873897D01*
X79138784Y13906600D01*
X79306416Y13906600D01*
X79470828Y13873897D01*
G37*
G36*
X83280828Y13873897D02*
G01*
X83435700Y13809747D01*
X83575081Y13716615D01*
X83693615Y13598081D01*
X83786747Y13458700D01*
X83850897Y13303828D01*
X83883600Y13139416D01*
X83883600Y12971784D01*
X83850897Y12807372D01*
X83786747Y12652500D01*
X83693615Y12513119D01*
X83575081Y12394585D01*
X83435700Y12301453D01*
X83280828Y12237303D01*
X83116416Y12204600D01*
X82948784Y12204600D01*
X82784372Y12237303D01*
X82629500Y12301453D01*
X82490119Y12394585D01*
X82371585Y12513119D01*
X82278453Y12652500D01*
X82214303Y12807372D01*
X82181600Y12971784D01*
X82181600Y13139416D01*
X82214303Y13303828D01*
X82278453Y13458700D01*
X82371585Y13598081D01*
X82490119Y13716615D01*
X82629500Y13809747D01*
X82784372Y13873897D01*
X82948784Y13906600D01*
X83116416Y13906600D01*
X83280828Y13873897D01*
G37*
G36*
X96564320Y14422280D02*
G01*
X96753481Y14364899D01*
X96927812Y14271717D01*
X97080615Y14146315D01*
X97206017Y13993512D01*
X97229467Y13949640D01*
X97299198Y13819183D01*
X97299199Y13819180D01*
X97356580Y13630019D01*
X97359726Y13598080D01*
X97371100Y13482594D01*
X97371100Y13289005D01*
X97366260Y13239864D01*
X97356580Y13141580D01*
X97299199Y12952419D01*
X97206017Y12778088D01*
X97080615Y12625285D01*
X96927812Y12499883D01*
X96845933Y12456118D01*
X96753483Y12406702D01*
X96753480Y12406701D01*
X96564319Y12349320D01*
X96367600Y12329945D01*
X96170880Y12349320D01*
X95981719Y12406701D01*
X95807388Y12499883D01*
X95654585Y12625285D01*
X95529183Y12778088D01*
X95452138Y12922229D01*
X95436002Y12952417D01*
X95398323Y13076630D01*
X95378620Y13141581D01*
X95365505Y13274745D01*
X95364100Y13289006D01*
X95364100Y13482595D01*
X95375742Y13600801D01*
X95378620Y13630020D01*
X95436001Y13819181D01*
X95529183Y13993512D01*
X95654585Y14146315D01*
X95807388Y14271717D01*
X95981720Y14364899D01*
X96170881Y14422280D01*
X96367600Y14441655D01*
X96564320Y14422280D01*
G37*
G36*
X99104320Y14422280D02*
G01*
X99293481Y14364899D01*
X99467812Y14271717D01*
X99620615Y14146315D01*
X99746017Y13993512D01*
X99769467Y13949640D01*
X99839198Y13819183D01*
X99839199Y13819180D01*
X99896580Y13630019D01*
X99899726Y13598080D01*
X99911100Y13482594D01*
X99911100Y13289005D01*
X99906260Y13239864D01*
X99896580Y13141580D01*
X99839199Y12952419D01*
X99746017Y12778088D01*
X99620615Y12625285D01*
X99467812Y12499883D01*
X99385933Y12456118D01*
X99293483Y12406702D01*
X99293480Y12406701D01*
X99104319Y12349320D01*
X98907600Y12329945D01*
X98710880Y12349320D01*
X98521719Y12406701D01*
X98347388Y12499883D01*
X98194585Y12625285D01*
X98069183Y12778088D01*
X97992138Y12922229D01*
X97976002Y12952417D01*
X97938323Y13076630D01*
X97918620Y13141581D01*
X97905505Y13274745D01*
X97904100Y13289006D01*
X97904100Y13482595D01*
X97915742Y13600801D01*
X97918620Y13630020D01*
X97976001Y13819181D01*
X98069183Y13993512D01*
X98194585Y14146315D01*
X98347388Y14271717D01*
X98521720Y14364899D01*
X98710881Y14422280D01*
X98907600Y14441655D01*
X99104320Y14422280D01*
G37*
G36*
X102451100Y12334800D02*
G01*
X100444100Y12334800D01*
X100444100Y14436800D01*
X102451100Y14436800D01*
X102451100Y12334800D01*
G37*
G36*
X27665697Y16166531D02*
G01*
X27768632Y16156393D01*
X27966746Y16096295D01*
X27966749Y16096294D01*
X28063575Y16044539D01*
X28149329Y15998703D01*
X28309365Y15867365D01*
X28440703Y15707329D01*
X28486539Y15621575D01*
X28538294Y15524749D01*
X28538295Y15524746D01*
X28598393Y15326632D01*
X28618685Y15120600D01*
X28598393Y14914568D01*
X28538295Y14716454D01*
X28538294Y14716451D01*
X28486539Y14619625D01*
X28440703Y14533871D01*
X28309365Y14373835D01*
X28149329Y14242497D01*
X28082170Y14206600D01*
X27966749Y14144906D01*
X27966746Y14144905D01*
X27768632Y14084807D01*
X27665697Y14074669D01*
X27614231Y14069600D01*
X27010969Y14069600D01*
X26959503Y14074669D01*
X26856568Y14084807D01*
X26658454Y14144905D01*
X26658451Y14144906D01*
X26543030Y14206600D01*
X26475871Y14242497D01*
X26315835Y14373835D01*
X26184497Y14533871D01*
X26138661Y14619625D01*
X26086906Y14716451D01*
X26086905Y14716454D01*
X26026807Y14914568D01*
X26006515Y15120600D01*
X26026807Y15326632D01*
X26086905Y15524746D01*
X26086906Y15524749D01*
X26138661Y15621575D01*
X26184497Y15707329D01*
X26315835Y15867365D01*
X26475871Y15998703D01*
X26561625Y16044539D01*
X26658451Y16096294D01*
X26658454Y16096295D01*
X26856568Y16156393D01*
X26959503Y16166531D01*
X27010969Y16171600D01*
X27614231Y16171600D01*
X27665697Y16166531D01*
G37*
G36*
X118433632Y18906393D02*
G01*
X118631746Y18846295D01*
X118631749Y18846294D01*
X118724691Y18796615D01*
X118814329Y18748703D01*
X118974365Y18617365D01*
X119105703Y18457329D01*
X119119249Y18431985D01*
X119203294Y18274748D01*
X119203295Y18274745D01*
X119263393Y18076631D01*
X119278600Y17922229D01*
X119278600Y17318970D01*
X119263393Y17164568D01*
X119214310Y17002765D01*
X119203294Y16966451D01*
X119198840Y16958119D01*
X119105703Y16783871D01*
X118974365Y16623835D01*
X118814329Y16492497D01*
X118734073Y16449600D01*
X118631748Y16394906D01*
X118631745Y16394905D01*
X118433631Y16334807D01*
X118227600Y16314515D01*
X118021568Y16334807D01*
X117823454Y16394905D01*
X117823451Y16394906D01*
X117721126Y16449600D01*
X117640871Y16492497D01*
X117480835Y16623835D01*
X117349497Y16783871D01*
X117287121Y16900570D01*
X117251906Y16966452D01*
X117251905Y16966455D01*
X117191807Y17164569D01*
X117176600Y17318971D01*
X117176600Y17922230D01*
X117191807Y18076632D01*
X117245838Y18254747D01*
X117251905Y18274747D01*
X117335951Y18431984D01*
X117349498Y18457329D01*
X117480836Y18617365D01*
X117640872Y18748703D01*
X117730510Y18796615D01*
X117823452Y18846294D01*
X117823455Y18846295D01*
X118021569Y18906393D01*
X118227600Y18926685D01*
X118433632Y18906393D01*
G37*
G36*
X18251664Y18511211D02*
G01*
X18381749Y18457328D01*
X18442935Y18431984D01*
X18615073Y18316965D01*
X18761465Y18170573D01*
X18840837Y18051785D01*
X18876485Y17998433D01*
X18955711Y17807164D01*
X18996100Y17604116D01*
X18996100Y17397084D01*
X18955711Y17194036D01*
X18876485Y17002767D01*
X18876484Y17002765D01*
X18761465Y16830627D01*
X18615073Y16684235D01*
X18442935Y16569216D01*
X18442934Y16569215D01*
X18442933Y16569215D01*
X18251664Y16489989D01*
X18048616Y16449600D01*
X17841584Y16449600D01*
X17638536Y16489989D01*
X17447267Y16569215D01*
X17447266Y16569215D01*
X17447265Y16569216D01*
X17275127Y16684235D01*
X17128735Y16830627D01*
X17013716Y17002765D01*
X17013715Y17002767D01*
X16934489Y17194036D01*
X16894100Y17397084D01*
X16894100Y17604116D01*
X16934489Y17807164D01*
X17013715Y17998433D01*
X17049364Y18051785D01*
X17128735Y18170573D01*
X17275127Y18316965D01*
X17447265Y18431984D01*
X17508451Y18457328D01*
X17638536Y18511211D01*
X17841584Y18551600D01*
X18048616Y18551600D01*
X18251664Y18511211D01*
G37*
G36*
X61055828Y18318897D02*
G01*
X61210700Y18254747D01*
X61350081Y18161615D01*
X61468615Y18043081D01*
X61561747Y17903700D01*
X61625897Y17748828D01*
X61658600Y17584416D01*
X61658600Y17416784D01*
X61625897Y17252372D01*
X61561747Y17097500D01*
X61468615Y16958119D01*
X61350081Y16839585D01*
X61210700Y16746453D01*
X61055828Y16682303D01*
X60891416Y16649600D01*
X60723784Y16649600D01*
X60559372Y16682303D01*
X60404500Y16746453D01*
X60265119Y16839585D01*
X60146585Y16958119D01*
X60053453Y17097500D01*
X59989303Y17252372D01*
X59956600Y17416784D01*
X59956600Y17584416D01*
X59989303Y17748828D01*
X60053453Y17903700D01*
X60146585Y18043081D01*
X60265119Y18161615D01*
X60404500Y18254747D01*
X60559372Y18318897D01*
X60723784Y18351600D01*
X60891416Y18351600D01*
X61055828Y18318897D01*
G37*
G36*
X57245828Y18318897D02*
G01*
X57400700Y18254747D01*
X57540081Y18161615D01*
X57658615Y18043081D01*
X57751747Y17903700D01*
X57815897Y17748828D01*
X57848600Y17584416D01*
X57848600Y17416784D01*
X57815897Y17252372D01*
X57751747Y17097500D01*
X57658615Y16958119D01*
X57540081Y16839585D01*
X57400700Y16746453D01*
X57245828Y16682303D01*
X57081416Y16649600D01*
X56913784Y16649600D01*
X56749372Y16682303D01*
X56594500Y16746453D01*
X56455119Y16839585D01*
X56336585Y16958119D01*
X56243453Y17097500D01*
X56179303Y17252372D01*
X56146600Y17416784D01*
X56146600Y17584416D01*
X56179303Y17748828D01*
X56243453Y17903700D01*
X56336585Y18043081D01*
X56455119Y18161615D01*
X56594500Y18254747D01*
X56749372Y18318897D01*
X56913784Y18351600D01*
X57081416Y18351600D01*
X57245828Y18318897D01*
G37*
G36*
X99155828Y18953897D02*
G01*
X99310700Y18889747D01*
X99450081Y18796615D01*
X99568615Y18678081D01*
X99661747Y18538700D01*
X99725897Y18383828D01*
X99758600Y18219416D01*
X99758600Y18051784D01*
X99725897Y17887372D01*
X99661747Y17732500D01*
X99568615Y17593119D01*
X99450081Y17474585D01*
X99310700Y17381453D01*
X99155828Y17317303D01*
X98991416Y17284600D01*
X98823784Y17284600D01*
X98659372Y17317303D01*
X98504500Y17381453D01*
X98365119Y17474585D01*
X98246585Y17593119D01*
X98153453Y17732500D01*
X98089303Y17887372D01*
X98056600Y18051784D01*
X98056600Y18219416D01*
X98089303Y18383828D01*
X98153453Y18538700D01*
X98246585Y18678081D01*
X98365119Y18796615D01*
X98504500Y18889747D01*
X98659372Y18953897D01*
X98823784Y18986600D01*
X98991416Y18986600D01*
X99155828Y18953897D01*
G37*
G36*
X95980828Y18953897D02*
G01*
X96135700Y18889747D01*
X96275081Y18796615D01*
X96393615Y18678081D01*
X96486747Y18538700D01*
X96550897Y18383828D01*
X96583600Y18219416D01*
X96583600Y18051784D01*
X96550897Y17887372D01*
X96486747Y17732500D01*
X96393615Y17593119D01*
X96275081Y17474585D01*
X96135700Y17381453D01*
X95980828Y17317303D01*
X95816416Y17284600D01*
X95648784Y17284600D01*
X95484372Y17317303D01*
X95329500Y17381453D01*
X95190119Y17474585D01*
X95071585Y17593119D01*
X94978453Y17732500D01*
X94914303Y17887372D01*
X94881600Y18051784D01*
X94881600Y18219416D01*
X94914303Y18383828D01*
X94978453Y18538700D01*
X95071585Y18678081D01*
X95190119Y18796615D01*
X95329500Y18889747D01*
X95484372Y18953897D01*
X95648784Y18986600D01*
X95816416Y18986600D01*
X95980828Y18953897D01*
G37*
G36*
X47665697Y21166531D02*
G01*
X47768632Y21156393D01*
X47966746Y21096295D01*
X47966749Y21096294D01*
X48063575Y21044539D01*
X48149329Y20998703D01*
X48309365Y20867365D01*
X48440703Y20707329D01*
X48486539Y20621575D01*
X48538294Y20524749D01*
X48538295Y20524746D01*
X48598393Y20326632D01*
X48618685Y20120600D01*
X48598393Y19914568D01*
X48538295Y19716454D01*
X48538294Y19716451D01*
X48486539Y19619625D01*
X48440703Y19533871D01*
X48309365Y19373835D01*
X48149329Y19242497D01*
X48063575Y19196661D01*
X47966749Y19144906D01*
X47966746Y19144905D01*
X47768632Y19084807D01*
X47665697Y19074669D01*
X47614231Y19069600D01*
X47010969Y19069600D01*
X46959503Y19074669D01*
X46856568Y19084807D01*
X46658454Y19144905D01*
X46658451Y19144906D01*
X46561625Y19196661D01*
X46475871Y19242497D01*
X46315835Y19373835D01*
X46184497Y19533871D01*
X46138661Y19619625D01*
X46086906Y19716451D01*
X46086905Y19716454D01*
X46026807Y19914568D01*
X46006515Y20120600D01*
X46026807Y20326632D01*
X46086905Y20524746D01*
X46086906Y20524749D01*
X46138661Y20621575D01*
X46184497Y20707329D01*
X46315835Y20867365D01*
X46475871Y20998703D01*
X46561625Y21044539D01*
X46658451Y21096294D01*
X46658454Y21096295D01*
X46856568Y21156393D01*
X46959503Y21166531D01*
X47010969Y21171600D01*
X47614231Y21171600D01*
X47665697Y21166531D01*
G37*
G36*
X82396839Y26404133D02*
G01*
X82710882Y26341666D01*
X83302526Y26096599D01*
X83834992Y25740816D01*
X84287816Y25287992D01*
X84643599Y24755526D01*
X84888666Y24163882D01*
X84914522Y24033895D01*
X85013600Y23535797D01*
X85013600Y22895403D01*
X84969385Y22673120D01*
X84888666Y22267318D01*
X84643599Y21675674D01*
X84287816Y21143208D01*
X83834992Y20690384D01*
X83302526Y20334601D01*
X82710882Y20089534D01*
X82396839Y20027067D01*
X82082797Y19964600D01*
X81442403Y19964600D01*
X81128361Y20027067D01*
X80814318Y20089534D01*
X80222674Y20334601D01*
X79690208Y20690384D01*
X79237384Y21143208D01*
X78881601Y21675674D01*
X78636534Y22267318D01*
X78555815Y22673120D01*
X78511600Y22895403D01*
X78511600Y23535797D01*
X78610678Y24033895D01*
X78636534Y24163882D01*
X78881601Y24755526D01*
X79237384Y25287992D01*
X79690208Y25740816D01*
X80222674Y26096599D01*
X80814318Y26341666D01*
X81128361Y26404133D01*
X81442403Y26466600D01*
X82082797Y26466600D01*
X82396839Y26404133D01*
G37*
G36*
X118433632Y23906393D02*
G01*
X118631746Y23846295D01*
X118631749Y23846294D01*
X118728575Y23794539D01*
X118814329Y23748703D01*
X118974365Y23617365D01*
X119105703Y23457329D01*
X119136818Y23399116D01*
X119203294Y23274748D01*
X119203295Y23274745D01*
X119263393Y23076631D01*
X119278600Y22922229D01*
X119278600Y22318970D01*
X119263393Y22164568D01*
X119203295Y21966455D01*
X119203294Y21966451D01*
X119151539Y21869625D01*
X119105703Y21783871D01*
X118974365Y21623835D01*
X118814329Y21492497D01*
X118697630Y21430121D01*
X118631748Y21394906D01*
X118631745Y21394905D01*
X118433631Y21334807D01*
X118227600Y21314515D01*
X118021568Y21334807D01*
X117823454Y21394905D01*
X117823451Y21394906D01*
X117726625Y21446661D01*
X117640871Y21492497D01*
X117480835Y21623835D01*
X117349497Y21783871D01*
X117251907Y21966451D01*
X117251906Y21966452D01*
X117251905Y21966455D01*
X117191807Y22164569D01*
X117176600Y22318971D01*
X117176600Y22922230D01*
X117191807Y23076632D01*
X117231872Y23208708D01*
X117251905Y23274747D01*
X117318381Y23399114D01*
X117349498Y23457329D01*
X117480836Y23617365D01*
X117640872Y23748703D01*
X117726626Y23794539D01*
X117823452Y23846294D01*
X117823455Y23846295D01*
X118021569Y23906393D01*
X118227600Y23926685D01*
X118433632Y23906393D01*
G37*
G36*
X59844164Y24306211D02*
G01*
X60035433Y24226985D01*
X60035435Y24226984D01*
X60207573Y24111965D01*
X60353965Y23965573D01*
X60433665Y23846294D01*
X60468985Y23793433D01*
X60548211Y23602164D01*
X60588600Y23399116D01*
X60588600Y23192084D01*
X60548211Y22989036D01*
X60468985Y22797767D01*
X60468984Y22797765D01*
X60353965Y22625627D01*
X60207573Y22479235D01*
X60035435Y22364216D01*
X60035434Y22364215D01*
X60035433Y22364215D01*
X59844164Y22284989D01*
X59641116Y22244600D01*
X59434084Y22244600D01*
X59231036Y22284989D01*
X59039767Y22364215D01*
X59039766Y22364215D01*
X59039765Y22364216D01*
X58867627Y22479235D01*
X58721235Y22625627D01*
X58606216Y22797765D01*
X58606215Y22797767D01*
X58526989Y22989036D01*
X58486600Y23192084D01*
X58486600Y23399116D01*
X58526989Y23602164D01*
X58606215Y23793433D01*
X58641536Y23846294D01*
X58721235Y23965573D01*
X58867627Y24111965D01*
X59039765Y24226984D01*
X59039767Y24226985D01*
X59231036Y24306211D01*
X59434084Y24346600D01*
X59641116Y24346600D01*
X59844164Y24306211D01*
G37*
G36*
X95980828Y24033897D02*
G01*
X96135700Y23969747D01*
X96275081Y23876615D01*
X96393615Y23758081D01*
X96486747Y23618700D01*
X96550897Y23463828D01*
X96583600Y23299416D01*
X96583600Y23131784D01*
X96550897Y22967372D01*
X96486747Y22812500D01*
X96393615Y22673119D01*
X96275081Y22554585D01*
X96135700Y22461453D01*
X95980828Y22397303D01*
X95816416Y22364600D01*
X95648784Y22364600D01*
X95484372Y22397303D01*
X95329500Y22461453D01*
X95190119Y22554585D01*
X95071585Y22673119D01*
X94978453Y22812500D01*
X94914303Y22967372D01*
X94881600Y23131784D01*
X94881600Y23299416D01*
X94914303Y23463828D01*
X94978453Y23618700D01*
X95071585Y23758081D01*
X95190119Y23876615D01*
X95329500Y23969747D01*
X95484372Y24033897D01*
X95648784Y24066600D01*
X95816416Y24066600D01*
X95980828Y24033897D01*
G37*
G36*
X99155828Y24033897D02*
G01*
X99310700Y23969747D01*
X99450081Y23876615D01*
X99568615Y23758081D01*
X99661747Y23618700D01*
X99725897Y23463828D01*
X99758600Y23299416D01*
X99758600Y23131784D01*
X99725897Y22967372D01*
X99661747Y22812500D01*
X99568615Y22673119D01*
X99450081Y22554585D01*
X99310700Y22461453D01*
X99155828Y22397303D01*
X98991416Y22364600D01*
X98823784Y22364600D01*
X98659372Y22397303D01*
X98504500Y22461453D01*
X98365119Y22554585D01*
X98246585Y22673119D01*
X98153453Y22812500D01*
X98089303Y22967372D01*
X98056600Y23131784D01*
X98056600Y23299416D01*
X98089303Y23463828D01*
X98153453Y23618700D01*
X98246585Y23758081D01*
X98365119Y23876615D01*
X98504500Y23969747D01*
X98659372Y24033897D01*
X98823784Y24066600D01*
X98991416Y24066600D01*
X99155828Y24033897D01*
G37*
G36*
X7883600Y23859600D02*
G01*
X5781600Y23859600D01*
X5781600Y26461600D01*
X7883600Y26461600D01*
X7883600Y23859600D01*
G37*
G36*
X17299164Y27401211D02*
G01*
X17490433Y27321985D01*
X17490435Y27321984D01*
X17662573Y27206965D01*
X17808965Y27060573D01*
X17885838Y26945525D01*
X17923985Y26888433D01*
X18003211Y26697164D01*
X18043600Y26494116D01*
X18043600Y26287084D01*
X18003211Y26084036D01*
X17923985Y25892767D01*
X17923984Y25892765D01*
X17808965Y25720627D01*
X17662573Y25574235D01*
X17490435Y25459216D01*
X17490434Y25459215D01*
X17490433Y25459215D01*
X17299164Y25379989D01*
X17096116Y25339600D01*
X16889084Y25339600D01*
X16686036Y25379989D01*
X16494767Y25459215D01*
X16494766Y25459215D01*
X16494765Y25459216D01*
X16322627Y25574235D01*
X16176235Y25720627D01*
X16061216Y25892765D01*
X16061215Y25892767D01*
X15981989Y26084036D01*
X15941600Y26287084D01*
X15941600Y26494116D01*
X15981989Y26697164D01*
X16061215Y26888433D01*
X16099363Y26945525D01*
X16176235Y27060573D01*
X16322627Y27206965D01*
X16494765Y27321984D01*
X16494767Y27321985D01*
X16686036Y27401211D01*
X16889084Y27441600D01*
X17096116Y27441600D01*
X17299164Y27401211D01*
G37*
G36*
X68715828Y27208897D02*
G01*
X68870700Y27144747D01*
X69010081Y27051615D01*
X69128615Y26933081D01*
X69221747Y26793700D01*
X69285897Y26638828D01*
X69318600Y26474416D01*
X69318600Y26306784D01*
X69285897Y26142372D01*
X69221747Y25987500D01*
X69128615Y25848119D01*
X69010081Y25729585D01*
X68870700Y25636453D01*
X68715828Y25572303D01*
X68551416Y25539600D01*
X68383784Y25539600D01*
X68219372Y25572303D01*
X68064500Y25636453D01*
X67925119Y25729585D01*
X67806585Y25848119D01*
X67713453Y25987500D01*
X67649303Y26142372D01*
X67616600Y26306784D01*
X67616600Y26474416D01*
X67649303Y26638828D01*
X67713453Y26793700D01*
X67806585Y26933081D01*
X67925119Y27051615D01*
X68064500Y27144747D01*
X68219372Y27208897D01*
X68383784Y27241600D01*
X68551416Y27241600D01*
X68715828Y27208897D01*
G37*
G36*
X71818600Y25539600D02*
G01*
X70116600Y25539600D01*
X70116600Y27241600D01*
X71818600Y27241600D01*
X71818600Y25539600D01*
G37*
G36*
X106764742Y27807358D02*
G01*
X106912701Y27746071D01*
X107045855Y27657101D01*
X107159101Y27543855D01*
X107248071Y27410701D01*
X107309358Y27262742D01*
X107340600Y27105675D01*
X107340600Y26945525D01*
X107309358Y26788458D01*
X107248071Y26640499D01*
X107159101Y26507345D01*
X107045855Y26394099D01*
X106912701Y26305129D01*
X106764742Y26243842D01*
X106607675Y26212600D01*
X106447525Y26212600D01*
X106290458Y26243842D01*
X106142499Y26305129D01*
X106009345Y26394099D01*
X105896099Y26507345D01*
X105807129Y26640499D01*
X105745842Y26788458D01*
X105714600Y26945525D01*
X105714600Y27105675D01*
X105745842Y27262742D01*
X105807129Y27410701D01*
X105896099Y27543855D01*
X106009345Y27657101D01*
X106142499Y27746071D01*
X106290458Y27807358D01*
X106447525Y27838600D01*
X106607675Y27838600D01*
X106764742Y27807358D01*
G37*
G36*
X96604742Y27807358D02*
G01*
X96752701Y27746071D01*
X96885855Y27657101D01*
X96999101Y27543855D01*
X97088071Y27410701D01*
X97149358Y27262742D01*
X97180600Y27105675D01*
X97180600Y26945525D01*
X97149358Y26788458D01*
X97088071Y26640499D01*
X96999101Y26507345D01*
X96885855Y26394099D01*
X96752701Y26305129D01*
X96604742Y26243842D01*
X96447675Y26212600D01*
X96287525Y26212600D01*
X96130458Y26243842D01*
X95982499Y26305129D01*
X95849345Y26394099D01*
X95736099Y26507345D01*
X95647129Y26640499D01*
X95585842Y26788458D01*
X95554600Y26945525D01*
X95554600Y27105675D01*
X95585842Y27262742D01*
X95647129Y27410701D01*
X95736099Y27543855D01*
X95849345Y27657101D01*
X95982499Y27746071D01*
X96130458Y27807358D01*
X96287525Y27838600D01*
X96447675Y27838600D01*
X96604742Y27807358D01*
G37*
G36*
X99144742Y27807358D02*
G01*
X99292701Y27746071D01*
X99425855Y27657101D01*
X99539101Y27543855D01*
X99628071Y27410701D01*
X99689358Y27262742D01*
X99720600Y27105675D01*
X99720600Y26945525D01*
X99689358Y26788458D01*
X99628071Y26640499D01*
X99539101Y26507345D01*
X99425855Y26394099D01*
X99292701Y26305129D01*
X99144742Y26243842D01*
X98987675Y26212600D01*
X98827525Y26212600D01*
X98670458Y26243842D01*
X98522499Y26305129D01*
X98389345Y26394099D01*
X98276099Y26507345D01*
X98187129Y26640499D01*
X98125842Y26788458D01*
X98094600Y26945525D01*
X98094600Y27105675D01*
X98125842Y27262742D01*
X98187129Y27410701D01*
X98276099Y27543855D01*
X98389345Y27657101D01*
X98522499Y27746071D01*
X98670458Y27807358D01*
X98827525Y27838600D01*
X98987675Y27838600D01*
X99144742Y27807358D01*
G37*
G36*
X104224742Y27807358D02*
G01*
X104372701Y27746071D01*
X104505855Y27657101D01*
X104619101Y27543855D01*
X104708071Y27410701D01*
X104769358Y27262742D01*
X104800600Y27105675D01*
X104800600Y26945525D01*
X104769358Y26788458D01*
X104708071Y26640499D01*
X104619101Y26507345D01*
X104505855Y26394099D01*
X104372701Y26305129D01*
X104224742Y26243842D01*
X104067675Y26212600D01*
X103907525Y26212600D01*
X103750458Y26243842D01*
X103602499Y26305129D01*
X103469345Y26394099D01*
X103356099Y26507345D01*
X103267129Y26640499D01*
X103205842Y26788458D01*
X103174600Y26945525D01*
X103174600Y27105675D01*
X103205842Y27262742D01*
X103267129Y27410701D01*
X103356099Y27543855D01*
X103469345Y27657101D01*
X103602499Y27746071D01*
X103750458Y27807358D01*
X103907525Y27838600D01*
X104067675Y27838600D01*
X104224742Y27807358D01*
G37*
G36*
X101684742Y27807358D02*
G01*
X101832701Y27746071D01*
X101965855Y27657101D01*
X102079101Y27543855D01*
X102168071Y27410701D01*
X102229358Y27262742D01*
X102260600Y27105675D01*
X102260600Y26945525D01*
X102229358Y26788458D01*
X102168071Y26640499D01*
X102079101Y26507345D01*
X101965855Y26394099D01*
X101832701Y26305129D01*
X101684742Y26243842D01*
X101527675Y26212600D01*
X101367525Y26212600D01*
X101210458Y26243842D01*
X101062499Y26305129D01*
X100929345Y26394099D01*
X100816099Y26507345D01*
X100727129Y26640499D01*
X100665842Y26788458D01*
X100634600Y26945525D01*
X100634600Y27105675D01*
X100665842Y27262742D01*
X100727129Y27410701D01*
X100816099Y27543855D01*
X100929345Y27657101D01*
X101062499Y27746071D01*
X101210458Y27807358D01*
X101367525Y27838600D01*
X101527675Y27838600D01*
X101684742Y27807358D01*
G37*
G36*
X109304742Y27807358D02*
G01*
X109452701Y27746071D01*
X109585855Y27657101D01*
X109699101Y27543855D01*
X109788071Y27410701D01*
X109849358Y27262742D01*
X109880600Y27105675D01*
X109880600Y26945525D01*
X109849358Y26788458D01*
X109788071Y26640499D01*
X109699101Y26507345D01*
X109585855Y26394099D01*
X109452701Y26305129D01*
X109304742Y26243842D01*
X109147675Y26212600D01*
X108987525Y26212600D01*
X108830458Y26243842D01*
X108682499Y26305129D01*
X108549345Y26394099D01*
X108436099Y26507345D01*
X108347129Y26640499D01*
X108285842Y26788458D01*
X108254600Y26945525D01*
X108254600Y27105675D01*
X108285842Y27262742D01*
X108347129Y27410701D01*
X108436099Y27543855D01*
X108549345Y27657101D01*
X108682499Y27746071D01*
X108830458Y27807358D01*
X108987525Y27838600D01*
X109147675Y27838600D01*
X109304742Y27807358D01*
G37*
G36*
X118433632Y28906393D02*
G01*
X118631746Y28846295D01*
X118631749Y28846294D01*
X118728575Y28794539D01*
X118814329Y28748703D01*
X118974365Y28617365D01*
X119105703Y28457329D01*
X119151540Y28371574D01*
X119203294Y28274748D01*
X119203295Y28274745D01*
X119263393Y28076631D01*
X119278600Y27922229D01*
X119278600Y27318970D01*
X119263393Y27164568D01*
X119203295Y26966455D01*
X119203294Y26966451D01*
X119161593Y26888435D01*
X119105703Y26783871D01*
X118974365Y26623835D01*
X118814329Y26492497D01*
X118697630Y26430121D01*
X118631748Y26394906D01*
X118631745Y26394905D01*
X118433631Y26334807D01*
X118227600Y26314515D01*
X118021568Y26334807D01*
X117823454Y26394905D01*
X117823451Y26394906D01*
X117698676Y26461600D01*
X117640871Y26492497D01*
X117480835Y26623835D01*
X117349497Y26783871D01*
X117269744Y26933080D01*
X117251906Y26966452D01*
X117226072Y27051615D01*
X117191807Y27164569D01*
X117176600Y27318971D01*
X117176600Y27922230D01*
X117191807Y28076632D01*
X117231872Y28208708D01*
X117251905Y28274747D01*
X117304070Y28372340D01*
X117349498Y28457329D01*
X117480836Y28617365D01*
X117640872Y28748703D01*
X117726626Y28794539D01*
X117823452Y28846294D01*
X117823455Y28846295D01*
X118021569Y28906393D01*
X118227600Y28926685D01*
X118433632Y28906393D01*
G37*
G36*
X60588600Y27244600D02*
G01*
X58486600Y27244600D01*
X58486600Y29346600D01*
X60588600Y29346600D01*
X60588600Y27244600D01*
G37*
G36*
X7038631Y31446393D02*
G01*
X7236745Y31386295D01*
X7236748Y31386294D01*
X7302630Y31351079D01*
X7419329Y31288703D01*
X7579365Y31157365D01*
X7710703Y30997329D01*
X7752348Y30919416D01*
X7808294Y30814749D01*
X7808294Y30814748D01*
X7808295Y30814746D01*
X7868393Y30616632D01*
X7883600Y30462230D01*
X7883600Y29858971D01*
X7868393Y29704569D01*
X7809159Y29509303D01*
X7808294Y29506452D01*
X7756540Y29409626D01*
X7710703Y29323871D01*
X7579365Y29163835D01*
X7419329Y29032497D01*
X7333575Y28986661D01*
X7236749Y28934906D01*
X7236746Y28934905D01*
X7038632Y28874807D01*
X6832600Y28854515D01*
X6626569Y28874807D01*
X6428455Y28934905D01*
X6428452Y28934906D01*
X6331626Y28986661D01*
X6245872Y29032497D01*
X6085836Y29163835D01*
X5954498Y29323871D01*
X5856906Y29506452D01*
X5856905Y29506453D01*
X5836581Y29573453D01*
X5796807Y29704568D01*
X5781600Y29858970D01*
X5781600Y30462229D01*
X5796807Y30616631D01*
X5856905Y30814745D01*
X5856906Y30814748D01*
X5912852Y30919416D01*
X5954497Y30997329D01*
X6085835Y31157365D01*
X6245871Y31288703D01*
X6332126Y31334807D01*
X6428451Y31386294D01*
X6428454Y31386295D01*
X6626568Y31446393D01*
X6832600Y31466685D01*
X7038631Y31446393D01*
G37*
G36*
X47665697Y31166531D02*
G01*
X47768632Y31156393D01*
X47966746Y31096295D01*
X47966749Y31096294D01*
X47993964Y31081747D01*
X48149329Y30998703D01*
X48309365Y30867365D01*
X48440703Y30707329D01*
X48486539Y30621575D01*
X48538294Y30524749D01*
X48538295Y30524746D01*
X48598393Y30326632D01*
X48618685Y30120600D01*
X48598393Y29914568D01*
X48538295Y29716454D01*
X48538294Y29716451D01*
X48531942Y29704568D01*
X48440703Y29533871D01*
X48309365Y29373835D01*
X48149329Y29242497D01*
X48063575Y29196661D01*
X47966749Y29144906D01*
X47966746Y29144905D01*
X47768632Y29084807D01*
X47665697Y29074669D01*
X47614231Y29069600D01*
X47010969Y29069600D01*
X46959503Y29074669D01*
X46856568Y29084807D01*
X46658454Y29144905D01*
X46658451Y29144906D01*
X46561625Y29196661D01*
X46475871Y29242497D01*
X46315835Y29373835D01*
X46184497Y29533871D01*
X46093258Y29704568D01*
X46086906Y29716451D01*
X46086905Y29716454D01*
X46026807Y29914568D01*
X46006515Y30120600D01*
X46026807Y30326632D01*
X46086905Y30524746D01*
X46086906Y30524749D01*
X46138661Y30621575D01*
X46184497Y30707329D01*
X46315835Y30867365D01*
X46475871Y30998703D01*
X46631236Y31081747D01*
X46658451Y31096294D01*
X46658454Y31096295D01*
X46856568Y31156393D01*
X46959503Y31166531D01*
X47010969Y31171600D01*
X47614231Y31171600D01*
X47665697Y31166531D01*
G37*
G36*
X87979828Y31145897D02*
G01*
X88134700Y31081747D01*
X88274081Y30988615D01*
X88392615Y30870081D01*
X88485747Y30730700D01*
X88549897Y30575828D01*
X88582600Y30411416D01*
X88582600Y30243784D01*
X88549897Y30079372D01*
X88485747Y29924500D01*
X88392615Y29785119D01*
X88274081Y29666585D01*
X88134700Y29573453D01*
X87979828Y29509303D01*
X87815416Y29476600D01*
X87647784Y29476600D01*
X87483372Y29509303D01*
X87328500Y29573453D01*
X87189119Y29666585D01*
X87070585Y29785119D01*
X86977453Y29924500D01*
X86913303Y30079372D01*
X86880600Y30243784D01*
X86880600Y30411416D01*
X86913303Y30575828D01*
X86977453Y30730700D01*
X87070585Y30870081D01*
X87189119Y30988615D01*
X87328500Y31081747D01*
X87483372Y31145897D01*
X87647784Y31178600D01*
X87815416Y31178600D01*
X87979828Y31145897D01*
G37*
G36*
X84169828Y31145897D02*
G01*
X84324700Y31081747D01*
X84464081Y30988615D01*
X84582615Y30870081D01*
X84675747Y30730700D01*
X84739897Y30575828D01*
X84772600Y30411416D01*
X84772600Y30243784D01*
X84739897Y30079372D01*
X84675747Y29924500D01*
X84582615Y29785119D01*
X84464081Y29666585D01*
X84324700Y29573453D01*
X84169828Y29509303D01*
X84005416Y29476600D01*
X83837784Y29476600D01*
X83673372Y29509303D01*
X83518500Y29573453D01*
X83379119Y29666585D01*
X83260585Y29785119D01*
X83167453Y29924500D01*
X83103303Y30079372D01*
X83070600Y30243784D01*
X83070600Y30411416D01*
X83103303Y30575828D01*
X83167453Y30730700D01*
X83260585Y30870081D01*
X83379119Y30988615D01*
X83518500Y31081747D01*
X83673372Y31145897D01*
X83837784Y31178600D01*
X84005416Y31178600D01*
X84169828Y31145897D01*
G37*
G36*
X97250828Y31653897D02*
G01*
X97405700Y31589747D01*
X97545081Y31496615D01*
X97663615Y31378081D01*
X97756747Y31238700D01*
X97820897Y31083828D01*
X97853600Y30919416D01*
X97853600Y30751784D01*
X97820897Y30587372D01*
X97756747Y30432500D01*
X97663615Y30293119D01*
X97545081Y30174585D01*
X97405700Y30081453D01*
X97250828Y30017303D01*
X97086416Y29984600D01*
X96918784Y29984600D01*
X96754372Y30017303D01*
X96599500Y30081453D01*
X96460119Y30174585D01*
X96341585Y30293119D01*
X96248453Y30432500D01*
X96184303Y30587372D01*
X96151600Y30751784D01*
X96151600Y30919416D01*
X96184303Y31083828D01*
X96248453Y31238700D01*
X96341585Y31378081D01*
X96460119Y31496615D01*
X96599500Y31589747D01*
X96754372Y31653897D01*
X96918784Y31686600D01*
X97086416Y31686600D01*
X97250828Y31653897D01*
G37*
G36*
X107410828Y31653897D02*
G01*
X107565700Y31589747D01*
X107705081Y31496615D01*
X107823615Y31378081D01*
X107916747Y31238700D01*
X107980897Y31083828D01*
X108013600Y30919416D01*
X108013600Y30751784D01*
X107980897Y30587372D01*
X107916747Y30432500D01*
X107823615Y30293119D01*
X107705081Y30174585D01*
X107565700Y30081453D01*
X107410828Y30017303D01*
X107246416Y29984600D01*
X107078784Y29984600D01*
X106914372Y30017303D01*
X106759500Y30081453D01*
X106620119Y30174585D01*
X106501585Y30293119D01*
X106408453Y30432500D01*
X106344303Y30587372D01*
X106311600Y30751784D01*
X106311600Y30919416D01*
X106344303Y31083828D01*
X106408453Y31238700D01*
X106501585Y31378081D01*
X106620119Y31496615D01*
X106759500Y31589747D01*
X106914372Y31653897D01*
X107078784Y31686600D01*
X107246416Y31686600D01*
X107410828Y31653897D01*
G37*
G36*
X94064742Y32887358D02*
G01*
X94212701Y32826071D01*
X94345855Y32737101D01*
X94459101Y32623855D01*
X94548071Y32490701D01*
X94609358Y32342742D01*
X94640600Y32185675D01*
X94640600Y32025525D01*
X94609358Y31868458D01*
X94548071Y31720499D01*
X94459101Y31587345D01*
X94345855Y31474099D01*
X94212701Y31385129D01*
X94064742Y31323842D01*
X93907675Y31292600D01*
X93747525Y31292600D01*
X93590458Y31323842D01*
X93442499Y31385129D01*
X93309345Y31474099D01*
X93196099Y31587345D01*
X93107129Y31720499D01*
X93045842Y31868458D01*
X93014600Y32025525D01*
X93014600Y32185675D01*
X93045842Y32342742D01*
X93107129Y32490701D01*
X93196099Y32623855D01*
X93309345Y32737101D01*
X93442499Y32826071D01*
X93590458Y32887358D01*
X93747525Y32918600D01*
X93907675Y32918600D01*
X94064742Y32887358D01*
G37*
G36*
X118433632Y33906393D02*
G01*
X118631746Y33846295D01*
X118631749Y33846294D01*
X118728575Y33794539D01*
X118814329Y33748703D01*
X118974365Y33617365D01*
X119105703Y33457329D01*
X119151540Y33371574D01*
X119203294Y33274748D01*
X119203295Y33274745D01*
X119263393Y33076631D01*
X119278600Y32922229D01*
X119278600Y32318970D01*
X119263393Y32164568D01*
X119221214Y32025525D01*
X119203294Y31966451D01*
X119151539Y31869625D01*
X119105703Y31783871D01*
X118974365Y31623835D01*
X118814329Y31492497D01*
X118728073Y31446393D01*
X118631748Y31394906D01*
X118631745Y31394905D01*
X118433631Y31334807D01*
X118227600Y31314515D01*
X118021568Y31334807D01*
X117823454Y31394905D01*
X117823451Y31394906D01*
X117726625Y31446661D01*
X117640871Y31492497D01*
X117480835Y31623835D01*
X117349497Y31783871D01*
X117251907Y31966451D01*
X117251906Y31966452D01*
X117233986Y32025526D01*
X117191807Y32164569D01*
X117176600Y32318971D01*
X117176600Y32922230D01*
X117191807Y33076632D01*
X117231872Y33208708D01*
X117251905Y33274747D01*
X117304070Y33372340D01*
X117349498Y33457329D01*
X117480836Y33617365D01*
X117640872Y33748703D01*
X117726626Y33794539D01*
X117823452Y33846294D01*
X117823455Y33846295D01*
X118021569Y33906393D01*
X118227600Y33926685D01*
X118433632Y33906393D01*
G37*
G36*
X97250828Y34828897D02*
G01*
X97405700Y34764747D01*
X97545081Y34671615D01*
X97663615Y34553081D01*
X97756747Y34413700D01*
X97820897Y34258828D01*
X97853600Y34094416D01*
X97853600Y33926784D01*
X97820897Y33762372D01*
X97756747Y33607500D01*
X97663615Y33468119D01*
X97545081Y33349585D01*
X97405700Y33256453D01*
X97250828Y33192303D01*
X97086416Y33159600D01*
X96918784Y33159600D01*
X96754372Y33192303D01*
X96599500Y33256453D01*
X96460119Y33349585D01*
X96341585Y33468119D01*
X96248453Y33607500D01*
X96184303Y33762372D01*
X96151600Y33926784D01*
X96151600Y34094416D01*
X96184303Y34258828D01*
X96248453Y34413700D01*
X96341585Y34553081D01*
X96460119Y34671615D01*
X96599500Y34764747D01*
X96754372Y34828897D01*
X96918784Y34861600D01*
X97086416Y34861600D01*
X97250828Y34828897D01*
G37*
G36*
X107410828Y34828897D02*
G01*
X107565700Y34764747D01*
X107705081Y34671615D01*
X107823615Y34553081D01*
X107916747Y34413700D01*
X107980897Y34258828D01*
X108013600Y34094416D01*
X108013600Y33926784D01*
X107980897Y33762372D01*
X107916747Y33607500D01*
X107823615Y33468119D01*
X107705081Y33349585D01*
X107565700Y33256453D01*
X107410828Y33192303D01*
X107246416Y33159600D01*
X107078784Y33159600D01*
X106914372Y33192303D01*
X106759500Y33256453D01*
X106620119Y33349585D01*
X106501585Y33468119D01*
X106408453Y33607500D01*
X106344303Y33762372D01*
X106311600Y33926784D01*
X106311600Y34094416D01*
X106344303Y34258828D01*
X106408453Y34413700D01*
X106501585Y34553081D01*
X106620119Y34671615D01*
X106759500Y34764747D01*
X106914372Y34828897D01*
X107078784Y34861600D01*
X107246416Y34861600D01*
X107410828Y34828897D01*
G37*
G36*
X94064742Y35427358D02*
G01*
X94212701Y35366071D01*
X94345855Y35277101D01*
X94459101Y35163855D01*
X94548071Y35030701D01*
X94609358Y34882742D01*
X94640600Y34725675D01*
X94640600Y34565525D01*
X94609358Y34408458D01*
X94548071Y34260499D01*
X94459101Y34127345D01*
X94345855Y34014099D01*
X94212701Y33925129D01*
X94064742Y33863842D01*
X93907675Y33832600D01*
X93747525Y33832600D01*
X93590458Y33863842D01*
X93442499Y33925129D01*
X93309345Y34014099D01*
X93196099Y34127345D01*
X93107129Y34260499D01*
X93045842Y34408458D01*
X93014600Y34565525D01*
X93014600Y34725675D01*
X93045842Y34882742D01*
X93107129Y35030701D01*
X93196099Y35163855D01*
X93309345Y35277101D01*
X93442499Y35366071D01*
X93590458Y35427358D01*
X93747525Y35458600D01*
X93907675Y35458600D01*
X94064742Y35427358D01*
G37*
G36*
X27665697Y36166531D02*
G01*
X27768632Y36156393D01*
X27966746Y36096295D01*
X27966749Y36096294D01*
X28063575Y36044539D01*
X28149329Y35998703D01*
X28309365Y35867365D01*
X28440703Y35707329D01*
X28486539Y35621575D01*
X28538294Y35524749D01*
X28538295Y35524746D01*
X28598393Y35326632D01*
X28618685Y35120600D01*
X28598393Y34914568D01*
X28541092Y34725675D01*
X28538294Y34716451D01*
X28486539Y34619625D01*
X28440703Y34533871D01*
X28309365Y34373835D01*
X28149329Y34242497D01*
X28063575Y34196661D01*
X27966749Y34144906D01*
X27966746Y34144905D01*
X27768632Y34084807D01*
X27665697Y34074669D01*
X27614231Y34069600D01*
X27010969Y34069600D01*
X26959503Y34074669D01*
X26856568Y34084807D01*
X26658454Y34144905D01*
X26658451Y34144906D01*
X26561625Y34196661D01*
X26475871Y34242497D01*
X26315835Y34373835D01*
X26184497Y34533871D01*
X26138661Y34619625D01*
X26086906Y34716451D01*
X26084108Y34725675D01*
X26026807Y34914568D01*
X26006515Y35120600D01*
X26026807Y35326632D01*
X26086905Y35524746D01*
X26086906Y35524749D01*
X26138661Y35621575D01*
X26184497Y35707329D01*
X26315835Y35867365D01*
X26475871Y35998703D01*
X26561625Y36044539D01*
X26658451Y36096294D01*
X26658454Y36096295D01*
X26856568Y36156393D01*
X26959503Y36166531D01*
X27010969Y36171600D01*
X27614231Y36171600D01*
X27665697Y36166531D01*
G37*
G36*
X67976619Y37891880D02*
G01*
X68165780Y37834499D01*
X68165783Y37834498D01*
X68258233Y37785082D01*
X68340112Y37741317D01*
X68492915Y37615915D01*
X68618317Y37463112D01*
X68711499Y37288781D01*
X68768880Y37099620D01*
X68783400Y36952194D01*
X68783400Y36758607D01*
X68768880Y36611181D01*
X68724576Y36465129D01*
X68711498Y36422017D01*
X68664772Y36334600D01*
X68618317Y36247688D01*
X68492915Y36094885D01*
X68340112Y35969483D01*
X68165781Y35876301D01*
X67976620Y35818920D01*
X67779900Y35799545D01*
X67583181Y35818920D01*
X67394020Y35876301D01*
X67219688Y35969483D01*
X67066885Y36094885D01*
X66941483Y36247688D01*
X66848301Y36422019D01*
X66790920Y36611180D01*
X66776400Y36758606D01*
X66776400Y36952193D01*
X66790920Y37099619D01*
X66848301Y37288780D01*
X66848302Y37288783D01*
X66919905Y37422742D01*
X66941483Y37463112D01*
X67066885Y37615915D01*
X67219688Y37741317D01*
X67394019Y37834499D01*
X67583180Y37891880D01*
X67779900Y37911255D01*
X67976619Y37891880D01*
G37*
G36*
X70516619Y37891880D02*
G01*
X70705780Y37834499D01*
X70705783Y37834498D01*
X70798233Y37785082D01*
X70880112Y37741317D01*
X71032915Y37615915D01*
X71158317Y37463112D01*
X71251499Y37288781D01*
X71308880Y37099620D01*
X71323400Y36952194D01*
X71323400Y36758607D01*
X71308880Y36611181D01*
X71264576Y36465129D01*
X71251498Y36422017D01*
X71204772Y36334600D01*
X71158317Y36247688D01*
X71032915Y36094885D01*
X70880112Y35969483D01*
X70705781Y35876301D01*
X70516620Y35818920D01*
X70319900Y35799545D01*
X70123181Y35818920D01*
X69934020Y35876301D01*
X69759688Y35969483D01*
X69606885Y36094885D01*
X69481483Y36247688D01*
X69388301Y36422019D01*
X69330920Y36611180D01*
X69316400Y36758606D01*
X69316400Y36952193D01*
X69330920Y37099619D01*
X69388301Y37288780D01*
X69388302Y37288783D01*
X69459905Y37422742D01*
X69481483Y37463112D01*
X69606885Y37615915D01*
X69759688Y37741317D01*
X69934019Y37834499D01*
X70123180Y37891880D01*
X70319900Y37911255D01*
X70516619Y37891880D01*
G37*
G36*
X66243400Y35804400D02*
G01*
X64236400Y35804400D01*
X64236400Y37906400D01*
X66243400Y37906400D01*
X66243400Y35804400D01*
G37*
G36*
X119278600Y36319600D02*
G01*
X117176600Y36319600D01*
X117176600Y38921600D01*
X119278600Y38921600D01*
X119278600Y36319600D01*
G37*
G36*
X107410828Y38003897D02*
G01*
X107565700Y37939747D01*
X107705081Y37846615D01*
X107823615Y37728081D01*
X107916747Y37588700D01*
X107980897Y37433828D01*
X108013600Y37269416D01*
X108013600Y37101784D01*
X107980897Y36937372D01*
X107916747Y36782500D01*
X107823615Y36643119D01*
X107705081Y36524585D01*
X107565700Y36431453D01*
X107410828Y36367303D01*
X107246416Y36334600D01*
X107078784Y36334600D01*
X106914372Y36367303D01*
X106759500Y36431453D01*
X106620119Y36524585D01*
X106501585Y36643119D01*
X106408453Y36782500D01*
X106344303Y36937372D01*
X106311600Y37101784D01*
X106311600Y37269416D01*
X106344303Y37433828D01*
X106408453Y37588700D01*
X106501585Y37728081D01*
X106620119Y37846615D01*
X106759500Y37939747D01*
X106914372Y38003897D01*
X107078784Y38036600D01*
X107246416Y38036600D01*
X107410828Y38003897D01*
G37*
G36*
X97250828Y38003897D02*
G01*
X97405700Y37939747D01*
X97545081Y37846615D01*
X97663615Y37728081D01*
X97756747Y37588700D01*
X97820897Y37433828D01*
X97853600Y37269416D01*
X97853600Y37101784D01*
X97820897Y36937372D01*
X97756747Y36782500D01*
X97663615Y36643119D01*
X97545081Y36524585D01*
X97405700Y36431453D01*
X97250828Y36367303D01*
X97086416Y36334600D01*
X96918784Y36334600D01*
X96754372Y36367303D01*
X96599500Y36431453D01*
X96460119Y36524585D01*
X96341585Y36643119D01*
X96248453Y36782500D01*
X96184303Y36937372D01*
X96151600Y37101784D01*
X96151600Y37269416D01*
X96184303Y37433828D01*
X96248453Y37588700D01*
X96341585Y37728081D01*
X96460119Y37846615D01*
X96599500Y37939747D01*
X96754372Y38003897D01*
X96918784Y38036600D01*
X97086416Y38036600D01*
X97250828Y38003897D01*
G37*
G36*
X94064742Y37967358D02*
G01*
X94212701Y37906071D01*
X94345855Y37817101D01*
X94459101Y37703855D01*
X94548071Y37570701D01*
X94609358Y37422742D01*
X94640600Y37265675D01*
X94640600Y37105525D01*
X94609358Y36948458D01*
X94548071Y36800499D01*
X94459101Y36667345D01*
X94345855Y36554099D01*
X94212701Y36465129D01*
X94064742Y36403842D01*
X93907675Y36372600D01*
X93747525Y36372600D01*
X93590458Y36403842D01*
X93442499Y36465129D01*
X93309345Y36554099D01*
X93196099Y36667345D01*
X93107129Y36800499D01*
X93045842Y36948458D01*
X93014600Y37105525D01*
X93014600Y37265675D01*
X93045842Y37422742D01*
X93107129Y37570701D01*
X93196099Y37703855D01*
X93309345Y37817101D01*
X93442499Y37906071D01*
X93590458Y37967358D01*
X93747525Y37998600D01*
X93907675Y37998600D01*
X94064742Y37967358D01*
G37*
G36*
X17299164Y40101211D02*
G01*
X17490433Y40021985D01*
X17490435Y40021984D01*
X17662573Y39906965D01*
X17808965Y39760573D01*
X17911945Y39606453D01*
X17923985Y39588433D01*
X18003211Y39397164D01*
X18043600Y39194116D01*
X18043600Y38987084D01*
X18003211Y38784036D01*
X17923985Y38592767D01*
X17923984Y38592765D01*
X17808965Y38420627D01*
X17662573Y38274235D01*
X17490435Y38159216D01*
X17490434Y38159215D01*
X17490433Y38159215D01*
X17299164Y38079989D01*
X17096116Y38039600D01*
X16889084Y38039600D01*
X16686036Y38079989D01*
X16494767Y38159215D01*
X16494766Y38159215D01*
X16494765Y38159216D01*
X16322627Y38274235D01*
X16176235Y38420627D01*
X16061216Y38592765D01*
X16061215Y38592767D01*
X15981989Y38784036D01*
X15941600Y38987084D01*
X15941600Y39194116D01*
X15981989Y39397164D01*
X16061215Y39588433D01*
X16073256Y39606453D01*
X16176235Y39760573D01*
X16322627Y39906965D01*
X16494765Y40021984D01*
X16494767Y40021985D01*
X16686036Y40101211D01*
X16889084Y40141600D01*
X17096116Y40141600D01*
X17299164Y40101211D01*
G37*
G36*
X97250828Y41178897D02*
G01*
X97405700Y41114747D01*
X97545081Y41021615D01*
X97663615Y40903081D01*
X97756747Y40763700D01*
X97820897Y40608828D01*
X97853600Y40444416D01*
X97853600Y40276784D01*
X97820897Y40112372D01*
X97756747Y39957500D01*
X97663615Y39818119D01*
X97545081Y39699585D01*
X97405700Y39606453D01*
X97250828Y39542303D01*
X97086416Y39509600D01*
X96918784Y39509600D01*
X96754372Y39542303D01*
X96599500Y39606453D01*
X96460119Y39699585D01*
X96341585Y39818119D01*
X96248453Y39957500D01*
X96184303Y40112372D01*
X96151600Y40276784D01*
X96151600Y40444416D01*
X96184303Y40608828D01*
X96248453Y40763700D01*
X96341585Y40903081D01*
X96460119Y41021615D01*
X96599500Y41114747D01*
X96754372Y41178897D01*
X96918784Y41211600D01*
X97086416Y41211600D01*
X97250828Y41178897D01*
G37*
G36*
X107410828Y41178897D02*
G01*
X107565700Y41114747D01*
X107705081Y41021615D01*
X107823615Y40903081D01*
X107916747Y40763700D01*
X107980897Y40608828D01*
X108013600Y40444416D01*
X108013600Y40276784D01*
X107980897Y40112372D01*
X107916747Y39957500D01*
X107823615Y39818119D01*
X107705081Y39699585D01*
X107565700Y39606453D01*
X107410828Y39542303D01*
X107246416Y39509600D01*
X107078784Y39509600D01*
X106914372Y39542303D01*
X106759500Y39606453D01*
X106620119Y39699585D01*
X106501585Y39818119D01*
X106408453Y39957500D01*
X106344303Y40112372D01*
X106311600Y40276784D01*
X106311600Y40444416D01*
X106344303Y40608828D01*
X106408453Y40763700D01*
X106501585Y40903081D01*
X106620119Y41021615D01*
X106759500Y41114747D01*
X106914372Y41178897D01*
X107078784Y41211600D01*
X107246416Y41211600D01*
X107410828Y41178897D01*
G37*
G36*
X83919164Y41856211D02*
G01*
X84110433Y41776985D01*
X84110435Y41776984D01*
X84234912Y41693811D01*
X84282573Y41661965D01*
X84428965Y41515573D01*
X84543985Y41343433D01*
X84623211Y41152164D01*
X84663600Y40949116D01*
X84663600Y40742084D01*
X84623211Y40539036D01*
X84543985Y40347767D01*
X84543984Y40347765D01*
X84428965Y40175627D01*
X84282573Y40029235D01*
X84110435Y39914216D01*
X84110434Y39914215D01*
X84110433Y39914215D01*
X83919164Y39834989D01*
X83716116Y39794600D01*
X83509084Y39794600D01*
X83306036Y39834989D01*
X83114767Y39914215D01*
X83114766Y39914215D01*
X83114765Y39914216D01*
X82942627Y40029235D01*
X82796235Y40175627D01*
X82681216Y40347765D01*
X82681215Y40347767D01*
X82601989Y40539036D01*
X82561600Y40742084D01*
X82561600Y40949116D01*
X82601989Y41152164D01*
X82681215Y41343433D01*
X82796235Y41515573D01*
X82942627Y41661965D01*
X82990288Y41693811D01*
X83114765Y41776984D01*
X83114767Y41776985D01*
X83306036Y41856211D01*
X83509084Y41896600D01*
X83716116Y41896600D01*
X83919164Y41856211D01*
G37*
G36*
X88419164Y41856211D02*
G01*
X88610433Y41776985D01*
X88610435Y41776984D01*
X88734912Y41693811D01*
X88782573Y41661965D01*
X88928965Y41515573D01*
X89043985Y41343433D01*
X89123211Y41152164D01*
X89163600Y40949116D01*
X89163600Y40742084D01*
X89123211Y40539036D01*
X89043985Y40347767D01*
X89043984Y40347765D01*
X88928965Y40175627D01*
X88782573Y40029235D01*
X88610435Y39914216D01*
X88610434Y39914215D01*
X88610433Y39914215D01*
X88419164Y39834989D01*
X88216116Y39794600D01*
X88009084Y39794600D01*
X87806036Y39834989D01*
X87614767Y39914215D01*
X87614766Y39914215D01*
X87614765Y39914216D01*
X87442627Y40029235D01*
X87296235Y40175627D01*
X87181216Y40347765D01*
X87181215Y40347767D01*
X87101989Y40539036D01*
X87061600Y40742084D01*
X87061600Y40949116D01*
X87101989Y41152164D01*
X87181215Y41343433D01*
X87296235Y41515573D01*
X87442627Y41661965D01*
X87490288Y41693811D01*
X87614765Y41776984D01*
X87614767Y41776985D01*
X87806036Y41856211D01*
X88009084Y41896600D01*
X88216116Y41896600D01*
X88419164Y41856211D01*
G37*
G36*
X68317931Y45157389D02*
G01*
X68645692Y45021626D01*
X68940670Y44824528D01*
X69191528Y44573670D01*
X69388626Y44278692D01*
X69524389Y43950931D01*
X69593600Y43602984D01*
X69593600Y43248216D01*
X69524389Y42900269D01*
X69388626Y42572508D01*
X69191528Y42277530D01*
X68940670Y42026672D01*
X68645692Y41829574D01*
X68317931Y41693811D01*
X67969984Y41624600D01*
X67615216Y41624600D01*
X67267269Y41693811D01*
X66939508Y41829574D01*
X66644530Y42026672D01*
X66393672Y42277530D01*
X66196574Y42572508D01*
X66060811Y42900269D01*
X65991600Y43248216D01*
X65991600Y43602984D01*
X66060811Y43950931D01*
X66196574Y44278692D01*
X66393672Y44573670D01*
X66644530Y44824528D01*
X66939508Y45021626D01*
X67267269Y45157389D01*
X67615216Y45226600D01*
X67969984Y45226600D01*
X68317931Y45157389D01*
G37*
G36*
X118861839Y48629133D02*
G01*
X119175882Y48566666D01*
X119767526Y48321599D01*
X120299992Y47965816D01*
X120752816Y47512992D01*
X121108599Y46980526D01*
X121353666Y46388882D01*
X121478600Y45760796D01*
X121478600Y45120404D01*
X121353666Y44492318D01*
X121108599Y43900674D01*
X120823586Y43474123D01*
X120752817Y43368209D01*
X120299991Y42915383D01*
X120238932Y42874585D01*
X119767526Y42559601D01*
X119175882Y42314534D01*
X118989850Y42277530D01*
X118547797Y42189600D01*
X117907403Y42189600D01*
X117465350Y42277530D01*
X117279318Y42314534D01*
X116687674Y42559601D01*
X116216268Y42874585D01*
X116155209Y42915383D01*
X115702383Y43368209D01*
X115631614Y43474123D01*
X115346601Y43900674D01*
X115101534Y44492318D01*
X114976600Y45120404D01*
X114976600Y45760796D01*
X115101534Y46388882D01*
X115346601Y46980526D01*
X115702384Y47512992D01*
X116155208Y47965816D01*
X116687674Y48321599D01*
X117279318Y48566666D01*
X117593361Y48629133D01*
X117907403Y48691600D01*
X118547797Y48691600D01*
X118861839Y48629133D01*
G37*
G36*
X7466839Y48629133D02*
G01*
X7780882Y48566666D01*
X8372526Y48321599D01*
X8904992Y47965816D01*
X9357816Y47512992D01*
X9713599Y46980526D01*
X9958666Y46388882D01*
X10083600Y45760796D01*
X10083600Y45120404D01*
X9958666Y44492318D01*
X9713599Y43900674D01*
X9428586Y43474123D01*
X9357817Y43368209D01*
X8904991Y42915383D01*
X8843932Y42874585D01*
X8372526Y42559601D01*
X7780882Y42314534D01*
X7594850Y42277530D01*
X7152797Y42189600D01*
X6512403Y42189600D01*
X6070350Y42277530D01*
X5884318Y42314534D01*
X5292674Y42559601D01*
X4821268Y42874585D01*
X4760209Y42915383D01*
X4307383Y43368209D01*
X4236614Y43474123D01*
X3951601Y43900674D01*
X3706534Y44492318D01*
X3581600Y45120404D01*
X3581600Y45760796D01*
X3706534Y46388882D01*
X3951601Y46980526D01*
X4307384Y47512992D01*
X4760208Y47965816D01*
X5292674Y48321599D01*
X5884318Y48566666D01*
X6198361Y48629133D01*
X6512403Y48691600D01*
X7152797Y48691600D01*
X7466839Y48629133D01*
G37*
G36*
X97250828Y44353897D02*
G01*
X97405700Y44289747D01*
X97545081Y44196615D01*
X97663615Y44078081D01*
X97756747Y43938700D01*
X97820897Y43783828D01*
X97853600Y43619416D01*
X97853600Y43451784D01*
X97820897Y43287372D01*
X97756747Y43132500D01*
X97663615Y42993119D01*
X97545081Y42874585D01*
X97405700Y42781453D01*
X97250828Y42717303D01*
X97086416Y42684600D01*
X96918784Y42684600D01*
X96754372Y42717303D01*
X96599500Y42781453D01*
X96460119Y42874585D01*
X96341585Y42993119D01*
X96248453Y43132500D01*
X96184303Y43287372D01*
X96151600Y43451784D01*
X96151600Y43619416D01*
X96184303Y43783828D01*
X96248453Y43938700D01*
X96341585Y44078081D01*
X96460119Y44196615D01*
X96599500Y44289747D01*
X96754372Y44353897D01*
X96918784Y44386600D01*
X97086416Y44386600D01*
X97250828Y44353897D01*
G37*
G36*
X107410828Y44353897D02*
G01*
X107565700Y44289747D01*
X107705081Y44196615D01*
X107823615Y44078081D01*
X107916747Y43938700D01*
X107980897Y43783828D01*
X108013600Y43619416D01*
X108013600Y43451784D01*
X107980897Y43287372D01*
X107916747Y43132500D01*
X107823615Y42993119D01*
X107705081Y42874585D01*
X107565700Y42781453D01*
X107410828Y42717303D01*
X107246416Y42684600D01*
X107078784Y42684600D01*
X106914372Y42717303D01*
X106759500Y42781453D01*
X106620119Y42874585D01*
X106501585Y42993119D01*
X106408453Y43132500D01*
X106344303Y43287372D01*
X106311600Y43451784D01*
X106311600Y43619416D01*
X106344303Y43783828D01*
X106408453Y43938700D01*
X106501585Y44078081D01*
X106620119Y44196615D01*
X106759500Y44289747D01*
X106914372Y44353897D01*
X107078784Y44386600D01*
X107246416Y44386600D01*
X107410828Y44353897D01*
G37*
G36*
X105505828Y47274897D02*
G01*
X105660700Y47210747D01*
X105800081Y47117615D01*
X105918615Y46999081D01*
X106011747Y46859700D01*
X106075897Y46704828D01*
X106108600Y46540416D01*
X106108600Y46372784D01*
X106075897Y46208372D01*
X106011747Y46053500D01*
X105918615Y45914119D01*
X105800081Y45795585D01*
X105660700Y45702453D01*
X105505828Y45638303D01*
X105341416Y45605600D01*
X105173784Y45605600D01*
X105009372Y45638303D01*
X104854500Y45702453D01*
X104715119Y45795585D01*
X104596585Y45914119D01*
X104503453Y46053500D01*
X104439303Y46208372D01*
X104406600Y46372784D01*
X104406600Y46540416D01*
X104439303Y46704828D01*
X104503453Y46859700D01*
X104596585Y46999081D01*
X104715119Y47117615D01*
X104854500Y47210747D01*
X105009372Y47274897D01*
X105173784Y47307600D01*
X105341416Y47307600D01*
X105505828Y47274897D01*
G37*
G36*
X98488600Y45605600D02*
G01*
X96786600Y45605600D01*
X96786600Y47307600D01*
X98488600Y47307600D01*
X98488600Y45605600D01*
G37*
G36*
X88419164Y48356211D02*
G01*
X88610433Y48276985D01*
X88610435Y48276984D01*
X88782573Y48161965D01*
X88928965Y48015573D01*
X88962212Y47965816D01*
X89043985Y47843433D01*
X89123211Y47652164D01*
X89163600Y47449116D01*
X89163600Y47242084D01*
X89123211Y47039036D01*
X89043985Y46847767D01*
X89043984Y46847765D01*
X88928965Y46675627D01*
X88782573Y46529235D01*
X88610435Y46414216D01*
X88610434Y46414215D01*
X88610433Y46414215D01*
X88419164Y46334989D01*
X88216116Y46294600D01*
X88009084Y46294600D01*
X87806036Y46334989D01*
X87614767Y46414215D01*
X87614766Y46414215D01*
X87614765Y46414216D01*
X87442627Y46529235D01*
X87296235Y46675627D01*
X87181216Y46847765D01*
X87181215Y46847767D01*
X87101989Y47039036D01*
X87061600Y47242084D01*
X87061600Y47449116D01*
X87101989Y47652164D01*
X87181215Y47843433D01*
X87262989Y47965816D01*
X87296235Y48015573D01*
X87442627Y48161965D01*
X87614765Y48276984D01*
X87614767Y48276985D01*
X87806036Y48356211D01*
X88009084Y48396600D01*
X88216116Y48396600D01*
X88419164Y48356211D01*
G37*
G36*
X83919164Y48356211D02*
G01*
X84110433Y48276985D01*
X84110435Y48276984D01*
X84282573Y48161965D01*
X84428965Y48015573D01*
X84462212Y47965816D01*
X84543985Y47843433D01*
X84623211Y47652164D01*
X84663600Y47449116D01*
X84663600Y47242084D01*
X84623211Y47039036D01*
X84543985Y46847767D01*
X84543984Y46847765D01*
X84428965Y46675627D01*
X84282573Y46529235D01*
X84110435Y46414216D01*
X84110434Y46414215D01*
X84110433Y46414215D01*
X83919164Y46334989D01*
X83716116Y46294600D01*
X83509084Y46294600D01*
X83306036Y46334989D01*
X83114767Y46414215D01*
X83114766Y46414215D01*
X83114765Y46414216D01*
X82942627Y46529235D01*
X82796235Y46675627D01*
X82681216Y46847765D01*
X82681215Y46847767D01*
X82601989Y47039036D01*
X82561600Y47242084D01*
X82561600Y47449116D01*
X82601989Y47652164D01*
X82681215Y47843433D01*
X82762989Y47965816D01*
X82796235Y48015573D01*
X82942627Y48161965D01*
X83114765Y48276984D01*
X83114767Y48276985D01*
X83306036Y48356211D01*
X83509084Y48396600D01*
X83716116Y48396600D01*
X83919164Y48356211D01*
G37*
M02*
