M48
; DRILL file {KiCad 5.1.5-52549c5~84~ubuntu18.04.1} date Mon 25 Nov 2019 02:01:09 AM EET
; FORMAT={-:-/ absolute / inch / decimal}
; #@! TF.CreationDate,2019-11-25T02:01:09+02:00
; #@! TF.GenerationSoftware,Kicad,Pcbnew,5.1.5-52549c5~84~ubuntu18.04.1
; #@! TF.FileFunction,Plated,1,2,PTH
FMAT,2
INCH
T1C0.0157
T2C0.0300
T3C0.0315
T4C0.0354
T5C0.0433
T6C0.0689
T7C0.1260
%
G90
G05
T1
X4.574Y1.569
X4.574Y1.519
X4.574Y1.384
X4.574Y1.254
X4.574Y1.204
X4.629Y1.569
X4.629Y1.384
X4.629Y1.204
X4.689Y1.569
X4.689Y1.384
X4.689Y1.204
X4.744Y1.569
X4.744Y1.519
X4.744Y1.384
X4.744Y1.254
X4.744Y1.204
T2
X3.694Y1.464
X3.694Y1.364
X3.694Y1.264
X3.794Y1.064
X3.894Y1.064
X3.994Y1.064
X4.094Y1.064
X4.194Y1.064
X4.294Y1.064
T3
X0.6317Y0.4921
X0.7065Y0.689
X2.344Y1.114
X2.344Y0.9171
X3.819Y1.214
X4.219Y1.214
X3.769Y0.914
X3.769Y0.714
X3.819Y1.589
X4.219Y1.589
X3.894Y0.914
X3.894Y0.714
X3.119Y0.514
X3.269Y0.514
X3.819Y1.714
X4.219Y1.714
X2.6956Y1.039
X2.794Y1.039
X2.244Y0.689
X2.394Y0.689
X3.304Y1.194
X3.454Y1.194
X3.844Y1.829
X4.144Y1.829
X0.669Y1.539
X0.669Y1.039
X2.919Y0.514
X2.919Y0.114
X3.819Y1.464
X4.219Y1.464
X3.819Y1.339
X4.219Y1.339
T4
X3.094Y0.189
X3.1924Y0.3859
X3.2909Y0.189
T5
X2.544Y0.514
X2.544Y0.114
X2.694Y0.514
X2.694Y0.114
X3.794Y0.527
X3.894Y0.527
X3.994Y0.527
X3.2918Y1.864
X3.2918Y1.6081
X3.469Y1.864
X3.469Y1.6081
X2.244Y0.514
X2.244Y0.114
X2.394Y0.514
X2.394Y0.114
X2.5685Y1.451
X2.6685Y1.451
X2.7685Y1.451
T6
X3.894Y0.2683
X2.669Y1.7097
T7
X3.219Y0.914
X0.269Y0.189
X0.269Y1.789
X4.6546Y0.189
X4.6546Y1.789
T3
G00X1.0714Y1.3827
M15
G01X1.0792Y1.3827
M16
G05
G00X1.0714Y0.5953
M15
G01X1.0792Y0.5953
M16
G05
G00X1.8588Y1.1859
M15
G01X1.8666Y1.1859
M16
G05
G00X1.8588Y0.7921
M15
G01X1.8666Y0.7921
M16
G05
T4
G00X4.6546Y1.487
M15
G01X4.6546Y1.4752
M16
G05
G00X4.6546Y1.2902
M15
G01X4.6546Y1.2784
M16
G05
G00X4.6546Y1.0933
M15
G01X4.6546Y1.0815
M16
G05
G00X4.6546Y0.8965
M15
G01X4.6546Y0.8847
M16
G05
G00X4.6546Y0.6996
M15
G01X4.6546Y0.6878
M16
G05
G00X4.6546Y0.5028
M15
G01X4.6546Y0.491
M16
G05
G00X0.269Y1.1815
M15
G01X0.269Y1.1933
M16
G05
G00X0.269Y0.9847
M15
G01X0.269Y0.9965
M16
G05
T0
M30
